<!-- Generated by IcoMoon.io -->
<svg version="1.1" xmlns="http://www.w3.org/2000/svg" width="32" height="32" viewBox="0 0 32 32">
<title>analyze-returns</title>
<path d="M6.029 14.175c-0.298 0-0.539 0.283-0.539 0.633v10.805c0 0.35 0.242 0.633 0.539 0.633s0.539-0.283 0.539-0.633v-10.805c-0.001-0.35-0.242-0.633-0.539-0.633zM8.936 17.749c-0.297 0-0.539 0.284-0.539 0.633v7.231c0 0.35 0.242 0.633 0.539 0.633s0.539-0.283 0.539-0.633v-7.231c0-0.349-0.242-0.633-0.539-0.633zM11.845 15.196c-0.298 0-0.539 0.284-0.539 0.633v9.784c0 0.35 0.242 0.633 0.539 0.633s0.539-0.283 0.539-0.633v-9.784c-0.001-0.35-0.242-0.633-0.539-0.633zM14.752 13.153c-0.298 0-0.539 0.283-0.539 0.633v11.826c0 0.35 0.241 0.633 0.539 0.633s0.539-0.283 0.539-0.633v-11.826c0-0.35-0.242-0.633-0.539-0.633zM29.808 12.2h-8.232v-9.499c0-1.048-0.852-1.899-1.899-1.899h-16.464c-1.048 0-2.921 0.852-2.921 1.899v24.696c0 1.047 1.873 1.899 2.921 1.899h12.031c0.35 0 0.633-0.284 0.633-0.633s-0.284-0.634-0.633-0.634h-11.521c-0.35 0-0.633-0.284-0.633-0.633l-0.511-24.186c0-0.349 0.795-0.633 1.144-0.633h15.443c0.349 0 0.633 0.284 0.633 0.633v8.988h-0.755c-1.048 0-1.899 0.853-1.899 1.899v15.198c0 1.047 0.853 1.899 1.899 1.899h10.765c1.048 0 1.899-0.852 1.899-1.899v-15.198c0.001-1.046-0.852-1.898-1.899-1.898zM29.931 28.788c0 0.349-0.284 0.633-0.633 0.633h-9.642c-0.349 0-0.633-0.284-0.633-0.633v-14.177c0-0.349 0.284-0.633 0.633-0.633h9.642c0.349 0 0.633 0.284 0.633 0.633v14.177zM21.462 25.857c-0.298 0-0.539 0.241-0.539 0.539v0.539c0 0.298 0.241 0.54 0.539 0.54s0.539-0.241 0.539-0.54v-0.539c0-0.298-0.241-0.539-0.539-0.539zM24.426 23.162c-0.297 0-0.539 0.241-0.539 0.539v0.54c0 0.297 0.241 0.539 0.539 0.539s0.539-0.241 0.539-0.539v-0.54c0-0.298-0.241-0.539-0.539-0.539zM27.39 23.162c-0.298 0-0.539 0.241-0.539 0.539v0.54c0 0.297 0.241 0.539 0.539 0.539 0.297 0 0.539-0.241 0.539-0.539v-0.54c0-0.298-0.241-0.539-0.539-0.539zM26.851 15.619h-4.849c-0.892 0-1.616 0.725-1.616 1.617s0.725 1.616 1.616 1.616h4.849c0.891 0 1.616-0.725 1.616-1.616s-0.726-1.617-1.616-1.617zM26.851 17.774h-4.849c-0.297 0-0.539-0.241-0.539-0.539s0.241-0.54 0.539-0.54h4.849c0.297 0 0.539 0.242 0.539 0.54s-0.242 0.539-0.539 0.539zM27.39 20.469c-0.298 0-0.539 0.241-0.539 0.539v0.539c0 0.298 0.241 0.539 0.539 0.539 0.297 0 0.539-0.241 0.539-0.539v-0.539c0-0.298-0.241-0.539-0.539-0.539zM21.462 23.162c-0.298 0-0.539 0.241-0.539 0.539v0.54c0 0.297 0.241 0.539 0.539 0.539s0.539-0.241 0.539-0.539v-0.54c0-0.298-0.241-0.539-0.539-0.539zM21.462 20.469c-0.298 0-0.539 0.241-0.539 0.539v0.539c0 0.298 0.241 0.539 0.539 0.539s0.539-0.241 0.539-0.539v-0.539c0-0.298-0.241-0.539-0.539-0.539zM24.426 25.857c-0.297 0-0.539 0.241-0.539 0.539v0.539c0 0.298 0.241 0.54 0.539 0.54s0.539-0.241 0.539-0.54v-0.539c0-0.298-0.241-0.539-0.539-0.539zM24.426 20.469c-0.297 0-0.539 0.241-0.539 0.539v0.539c0 0.298 0.241 0.539 0.539 0.539s0.539-0.241 0.539-0.539v-0.539c0-0.298-0.241-0.539-0.539-0.539zM27.39 25.857c-0.298 0-0.539 0.241-0.539 0.539v0.539c0 0.298 0.241 0.54 0.539 0.54 0.297 0 0.539-0.241 0.539-0.54v-0.539c0-0.298-0.241-0.539-0.539-0.539zM15.567 5.117v0.559h1.205l-4.181 4.181-1.88-1.88-2.12 2.12-0.939-0.94-2.162 2.162 0.395 0.395 1.767-1.766 0.939 0.94 2.12-2.12 1.88 1.88 4.575-4.576v1.205h0.56v-2.16z"></path>
</svg>
