<!-- Generated by IcoMoon.io -->
<svg version="1.1" xmlns="http://www.w3.org/2000/svg" width="32" height="32" viewBox="0 0 32 32">
<title>apartment-swimming-pool</title>
<path d="M24.33 17.659c2.656 0 4.817-2.161 4.817-4.817s-2.161-4.817-4.817-4.817-4.817 2.161-4.817 4.817 2.161 4.817 4.817 4.817zM24.33 9.025c2.104 0 3.817 1.712 3.817 3.817s-1.713 3.817-3.817 3.817-3.817-1.712-3.817-3.817c0-2.105 1.713-3.817 3.817-3.817zM24.33 10.97v-1c-1.686 0-2.293 1.032-2.379 1.578l0.988 0.155c0.001-0.007 0.13-0.733 1.391-0.733zM11.542 8.972c0.025-0.012 0.613-0.298 1.028 0.231l9.485 11.796 0.779-0.627-9.481-11.791c-0.729-0.927-1.796-0.733-2.285-0.489l-7.479 4.317 0.5 0.866 7.453-4.303zM5.022 20.242l9.296-5.096-2.102-3.134c-0.418-0.609-1.215-0.498-1.747-0.155l-6.871 3.769 0.48 0.877 6.901-3.787c0.12-0.078 0.344-0.154 0.41-0.143l1.489 2.221-8.337 4.57 0.481 0.878zM28.332 21.020c-1.144 2.048-3.564 2.083-3.699 2.085-2.467 0.172-3.941-2.088-3.956-2.111l-0.452-0.699-0.405 0.726c-1.144 2.048-3.565 2.083-3.7 2.085-2.463 0.169-3.94-2.088-3.955-2.111l-0.452-0.699-0.405 0.724c-1.144 2.048-3.566 2.083-3.701 2.085-2.471 0.169-3.94-2.088-3.955-2.111l-0.842 0.54c0.073 0.112 1.809 2.76 4.83 2.57 0.12 0 2.613-0.025 4.136-1.984 0.67 0.763 2.060 1.995 4.053 1.995 0.106 0 0.214-0.004 0.323-0.011 0.12 0 2.612-0.025 4.136-1.984 0.705 0.803 2.195 2.113 4.378 1.984 0.131 0 3.106-0.030 4.539-2.596l-0.873-0.488z"></path>
</svg>
