<!-- Generated by IcoMoon.io -->
<svg version="1.1" xmlns="http://www.w3.org/2000/svg" width="32" height="32" viewBox="0 0 32 32">
<title>area-sqft</title>
<path d="M31.357-0.001h-30.714c-0.355 0-0.643 0.288-0.643 0.643v30.714c0 0.355 0.288 0.643 0.643 0.643h18.733c0.355 0 0.643-0.288 0.643-0.643s-0.288-0.643-0.643-0.643h-18.089v-14.987h8.968v6.164c0 0.355 0.288 0.643 0.643 0.643s0.643-0.288 0.643-0.643v-13.463c0-0.355-0.288-0.643-0.643-0.643s-0.643 0.288-0.643 0.643v6.013h-8.968v-13.156h17.447v8.051c0 0.355 0.288 0.643 0.643 0.643h6.8c0.355 0 0.643-0.288 0.643-0.643s-0.288-0.643-0.643-0.643h-6.157v-7.408h10.696v19.963h-11.339c-0.355 0-0.643 0.288-0.643 0.644s0.288 0.643 0.643 0.643h11.339v8.179h-4.539c-0.355 0-0.643 0.288-0.643 0.643s0.288 0.643 0.643 0.643h5.182c0.355 0 0.643-0.288 0.643-0.643v-30.715c-0-0.356-0.288-0.644-0.643-0.644z"></path>
</svg>
