<!-- Generated by IcoMoon.io -->
<svg version="1.1" xmlns="http://www.w3.org/2000/svg" width="32" height="32" viewBox="0 0 32 32">
<title>bathroom</title>
<path d="M28.25 15.266h-24.501c-1.242 0-2.252 1.010-2.252 2.252 0 0.988 0.64 1.828 1.526 2.131v1.61c0 2.445 1.151 4.628 2.939 6.033l-0.963 0.964c-0.298 0.298-0.298 0.781 0 1.080 0.149 0.148 0.344 0.224 0.54 0.224s0.39-0.075 0.54-0.224l1.206-1.206c1.027 0.512 2.185 0.801 3.409 0.801h10.609c1.224 0 2.382-0.289 3.409-0.801l1.206 1.206c0.149 0.148 0.344 0.224 0.54 0.224s0.391-0.075 0.54-0.224c0.298-0.298 0.298-0.781 0-1.080l-0.963-0.964c1.788-1.405 2.939-3.588 2.939-6.033v-1.61c0.887-0.303 1.527-1.143 1.527-2.131 0.001-1.242-1.010-2.251-2.252-2.251zM16.102 19.005v-2.214h7.429v4.918c0 0.698-0.568 1.265-1.266 1.265h-4.898c-0.698 0-1.266-0.568-1.266-1.265v-2.704zM3.749 18.242c-0.4 0-0.725-0.326-0.725-0.725s0.325-0.725 0.725-0.725h10.826v1.45h-10.826zM27.449 21.258c0 3.388-2.756 6.144-6.145 6.144h-10.609c-3.388 0-6.145-2.756-6.145-6.144v-1.488h10.024v1.939c0 1.539 1.252 2.792 2.792 2.792h4.898c1.54 0 2.792-1.253 2.792-2.792v-1.939h2.391v1.488h0.001zM28.25 18.242h-3.193v-1.45h3.193c0.4 0 0.725 0.325 0.725 0.725s-0.325 0.725-0.725 0.725zM14.641 5.795c-0.33-1.901-1.99-3.352-3.985-3.352h-0.305c-2.23 0-4.045 1.815-4.045 4.045v4.604c0 0.421 0.342 0.764 0.764 0.764s0.763-0.343 0.763-0.764v-4.604c0-1.389 1.13-2.519 2.519-2.519h0.305c1.16 0 2.14 0.789 2.431 1.859-1.557 0.383-2.716 1.789-2.716 3.463v0.861c0 0.422 0.342 0.764 0.764 0.764h5.607c0.421 0 0.763-0.342 0.763-0.764v-0.861c0.001-1.725-1.233-3.169-2.864-3.496zM15.979 9.388h-4.080v-0.097c0-1.124 0.915-2.040 2.040-2.040s2.040 0.916 2.040 2.040v0.097zM7.609 12.92c-0.035-0.036-0.074-0.067-0.116-0.095s-0.085-0.051-0.131-0.070c-0.047-0.019-0.095-0.033-0.143-0.044-0.098-0.019-0.2-0.019-0.298 0-0.049 0.010-0.097 0.025-0.143 0.044s-0.091 0.043-0.132 0.070c-0.042 0.028-0.081 0.060-0.116 0.095s-0.067 0.074-0.094 0.116c-0.028 0.041-0.051 0.085-0.070 0.132-0.019 0.045-0.035 0.093-0.044 0.143s-0.015 0.099-0.015 0.148c0 0.050 0.005 0.1 0.015 0.15 0.010 0.048 0.025 0.096 0.044 0.143s0.043 0.090 0.070 0.132c0.027 0.042 0.060 0.081 0.094 0.116 0.035 0.035 0.074 0.067 0.116 0.095 0.041 0.028 0.085 0.051 0.132 0.070 0.045 0.019 0.094 0.033 0.143 0.044s0.099 0.014 0.148 0.014c0.050 0 0.1-0.004 0.148-0.014s0.097-0.024 0.144-0.044c0.045-0.019 0.090-0.043 0.131-0.070s0.081-0.060 0.116-0.095c0.142-0.142 0.224-0.339 0.224-0.54s-0.082-0.398-0.224-0.54z"></path>
</svg>
