<!-- Generated by IcoMoon.io -->
<svg version="1.1" xmlns="http://www.w3.org/2000/svg" width="32" height="32" viewBox="0 0 32 32">
<title>bed-1</title>
<path d="M31.273 24.727v-2.909c0-0.397-0.16-0.757-0.421-1.020 0.1-0.316 0.096-0.66-0.031-0.976-0.019-0.046-0.043-0.091-0.072-0.134l-1.009-1.505h0.077v-10.91c0-0.402-0.325-0.727-0.727-0.727-1.203 0-2.182-0.98-2.182-2.182 0-0.402-0.325-0.728-0.727-0.728h-4.791c-0.88-2.167-3.023-3.636-5.391-3.636s-4.512 1.47-5.392 3.636h-4.79c-0.402 0-0.727 0.326-0.727 0.728 0 1.202-0.979 2.182-2.182 2.182-0.402 0-0.728 0.325-0.728 0.727v10.91h0.077l-1.010 1.506c-0.028 0.043-0.052 0.088-0.071 0.135-0.126 0.315-0.13 0.659-0.031 0.974-0.26 0.263-0.421 0.623-0.421 1.020v2.909c-0.402 0-0.727 0.325-0.727 0.727v2.91c0 0.402 0.325 0.727 0.727 0.727h1.615l0.59 2.358c0.080 0.324 0.371 0.551 0.704 0.551h1.454c0.333 0 0.624-0.227 0.705-0.551l0.589-2.358h19.229l0.591 2.358c0.080 0.324 0.371 0.551 0.704 0.551h1.455c0.333 0 0.624-0.227 0.705-0.551l0.588-2.358h1.615c0.402 0 0.727-0.325 0.727-0.727v-2.91c0-0.402-0.325-0.727-0.727-0.727zM3.636 7.927c1.422-0.29 2.546-1.413 2.835-2.836h4.651c0.321 0 0.605-0.211 0.697-0.52 0.546-1.834 2.265-3.116 4.18-3.116 1.914 0 3.634 1.281 4.181 3.116 0.091 0.309 0.375 0.52 0.696 0.52h4.652c0.289 1.423 1.413 2.546 2.836 2.836v8.2l-2.182-3.257v-3.414c0-0.802-0.653-1.454-1.455-1.454h-6.545c-0.803 0-1.455 0.652-1.455 1.454v2.909h-1.454v-2.909c0-0.802-0.652-1.454-1.454-1.454h-6.546c-0.802 0-1.454 0.652-1.454 1.454v3.414l-2.181 3.257v-8.2zM24.727 9.455v2.909h-6.545v-2.909h6.545zM13.818 9.455v2.909h-6.546v-2.909h6.546zM4.010 18.182h16.354v-1.455h-15.369l1.94-2.909h18.131l1.939 2.909h-5.187v1.455h6.171l1.462 2.182h-26.904l1.462-2.182zM2.181 21.818h27.637v2.909h-27.637v-2.909zM4.523 30.545h-0.318l-0.364-1.454h1.046l-0.364 1.454zM27.796 30.545h-0.319l-0.363-1.454h1.046l-0.364 1.454zM30.546 27.636h-29.092v-1.454h29.092v1.454zM16.727 2.909h-1.454v1.455h1.454v-1.455zM16.727 5.818h-1.454v1.455h1.454v-1.455z"></path>
</svg>
