<!-- Generated by IcoMoon.io -->
<svg version="1.1" xmlns="http://www.w3.org/2000/svg" width="32" height="32" viewBox="0 0 32 32">
<title>binoculars-2</title>
<path d="M6.367 18.727c-1.542 0-2.937 0.971-3.471 2.418-0.127 0.345 0.049 0.729 0.394 0.857 0.076 0.028 0.154 0.041 0.231 0.041 0.271 0 0.526-0.167 0.626-0.436 0.342-0.925 1.234-1.546 2.22-1.546 0.368 0 0.667-0.299 0.667-0.667s-0.298-0.667-0.667-0.667zM16 15.652c-1.373 0-2.491 1.117-2.491 2.491s1.117 2.491 2.491 2.491 2.491-1.117 2.491-2.491c0-1.373-1.117-2.491-2.491-2.491zM16 19.3c-0.638 0-1.157-0.519-1.157-1.157s0.519-1.157 1.157-1.157c0.638 0 1.157 0.519 1.157 1.157s-0.519 1.157-1.157 1.157zM31.502 19.957l-2.728-9.079c-0.383-1.274-0.851-2.833-1.904-3.864 0-0.002 0-0.004 0-0.006 0-2.096-1.705-3.802-3.802-3.802s-3.802 1.706-3.802 3.802c0 0.467 0.088 0.932 0.255 1.367-0.15 0.159-0.298 0.318-0.443 0.475-0.121 0.131-0.24 0.259-0.357 0.383-0.773-0.6-1.733-0.935-2.721-0.935s-1.949 0.335-2.721 0.935c-0.117-0.124-0.235-0.252-0.356-0.383-0.145-0.157-0.293-0.316-0.444-0.476 0.167-0.435 0.255-0.9 0.255-1.367 0-2.096-1.705-3.802-3.802-3.802s-3.802 1.706-3.802 3.802c0 0.002 0 0.004 0 0.006-1.053 1.031-1.522 2.59-1.904 3.864l-2.727 9.079c-0.321 0.76-0.499 1.595-0.499 2.47 0 3.511 2.856 6.367 6.367 6.367 3.396 0 6.179-2.672 6.358-6.025 0.968 0.621 2.102 0.962 3.276 0.962s2.308-0.34 3.276-0.962c0.178 3.352 2.962 6.025 6.358 6.025 3.511 0 6.367-2.856 6.367-6.367 0-0.875-0.178-1.71-0.498-2.47zM23.068 4.54c1.042 0 1.934 0.649 2.296 1.564-0.419-0.134-0.893-0.209-1.431-0.209-1.324 0-2.389 0.614-3.314 1.412-0.012-0.099-0.018-0.199-0.018-0.299 0-1.361 1.107-2.468 2.468-2.468zM8.932 4.54c1.361 0 2.468 1.107 2.468 2.468 0 0.1-0.006 0.2-0.018 0.299-0.926-0.799-1.99-1.412-3.314-1.412-0.538 0-1.012 0.075-1.431 0.209 0.362-0.915 1.254-1.564 2.296-1.564zM6.367 27.46c-2.775 0-5.033-2.258-5.033-5.033s2.258-5.033 5.033-5.033 5.033 2.258 5.033 5.033c0 2.775-2.258 5.033-5.033 5.033zM16 22.397c-1.311 0-2.56-0.545-3.453-1.5-0.687-2.774-3.197-4.837-6.181-4.837-1.358 0-2.617 0.427-3.652 1.154l1.788-5.953c0.71-2.361 1.38-4.033 3.564-4.033 1.535 0 2.725 1.285 3.876 2.528 0.195 0.21 0.395 0.426 0.595 0.634l-0.424 2.799c-0.055 0.364 0.195 0.704 0.559 0.759 0.034 0.005 0.068 0.008 0.101 0.008 0.324 0 0.608-0.237 0.658-0.567l0.441-2.911c0.572-0.54 1.336-0.846 2.126-0.846s1.553 0.307 2.125 0.846l0.204 1.347c0.050 0.33 0.334 0.567 0.658 0.567 0.033 0 0.067-0.002 0.101-0.008 0.364-0.055 0.615-0.395 0.559-0.759l-0.187-1.235c0.201-0.209 0.401-0.424 0.595-0.634 1.151-1.243 2.341-2.528 3.876-2.528 2.184 0 2.855 1.671 3.564 4.033l1.788 5.953c-1.035-0.727-2.294-1.154-3.652-1.154-2.983 0-5.494 2.063-6.181 4.837-0.892 0.954-2.141 1.5-3.453 1.5zM25.633 27.46c-2.775 0-5.033-2.258-5.033-5.033s2.258-5.033 5.033-5.033c2.775 0 5.033 2.258 5.033 5.033s-2.258 5.033-5.033 5.033zM4.078 23.030c-0.097-0.355-0.464-0.565-0.819-0.468-0.352 0.096-0.561 0.456-0.471 0.808 0.074 0.304 0.347 0.508 0.647 0.508 0.051 0 0.102-0.006 0.153-0.018 0.358-0.084 0.581-0.443 0.496-0.802-0.002-0.010-0.005-0.020-0.007-0.029zM25.633 18.727c-1.542 0-2.937 0.971-3.471 2.418-0.128 0.345 0.049 0.729 0.395 0.857 0.076 0.028 0.154 0.041 0.231 0.041 0.271 0 0.526-0.167 0.625-0.436 0.342-0.925 1.234-1.546 2.22-1.546 0.368 0 0.667-0.299 0.667-0.667s-0.299-0.667-0.667-0.667zM23.345 23.030c-0.097-0.355-0.464-0.565-0.819-0.468-0.352 0.096-0.561 0.456-0.471 0.808 0.074 0.304 0.347 0.508 0.647 0.508 0.051 0 0.102-0.006 0.153-0.018 0.358-0.084 0.581-0.443 0.496-0.802-0.002-0.010-0.005-0.020-0.007-0.029z"></path>
</svg>
