<!-- Generated by IcoMoon.io -->
<svg version="1.1" xmlns="http://www.w3.org/2000/svg" width="32" height="32" viewBox="0 0 32 32">
<title>bookmark-2</title>
<path d="M25.333 25.6h-18.667c-0.295 0-0.533 0.238-0.533 0.533s0.238 0.533 0.533 0.533h18.667c0.295 0 0.533-0.238 0.533-0.533s-0.238-0.533-0.533-0.533zM6.667 23.467h7.467c0.295 0 0.533-0.238 0.533-0.533s-0.238-0.533-0.533-0.533h-7.467c-0.295 0-0.533 0.238-0.533 0.533s0.238 0.533 0.533 0.533zM25.333 22.4h-6.933c-0.295 0-0.533 0.238-0.533 0.533s0.238 0.533 0.533 0.533h6.933c0.295 0 0.533-0.238 0.533-0.533s-0.238-0.533-0.533-0.533zM16.645 23.312c0.096-0.101 0.155-0.24 0.155-0.379s-0.059-0.278-0.155-0.373c-0.197-0.203-0.566-0.203-0.757-0.005-0.097 0.101-0.155 0.239-0.155 0.379s0.058 0.277 0.155 0.379c0.101 0.096 0.234 0.155 0.379 0.155 0.139 0 0.277-0.059 0.379-0.155zM29.067 2.133h-13.333v-1.6c0-0.295-0.238-0.533-0.533-0.533h-8.533c-0.295 0-0.533 0.238-0.533 0.533v1.6h-3.2c-0.295 0-0.533 0.238-0.533 0.533v28.8c0 0.295 0.238 0.533 0.533 0.533h26.133c0.295 0 0.533-0.238 0.533-0.533v-28.8c0-0.295-0.238-0.533-0.533-0.533zM7.2 2.667v-1.6h7.467v13.333l-3.413-2.56c-0.189-0.143-0.45-0.143-0.639 0l-3.414 2.56v-11.733zM28.533 30.933h-25.067v-27.733h2.667v12.267c0 0.202 0.114 0.387 0.295 0.477s0.397 0.071 0.558-0.051l3.947-2.96 3.947 2.96c0.044 0.033 0.092 0.057 0.142 0.075 0.018 0.006 0.037 0.009 0.055 0.013 0.033 0.007 0.065 0.014 0.099 0.016 0.008 0 0.015 0.004 0.023 0.004 0.009 0 0.017-0.006 0.026-0.006 0.073-0.003 0.145-0.017 0.213-0.050 0.18-0.091 0.294-0.275 0.294-0.477v-12.267h12.8v27.733z"></path>
</svg>
