<!-- Generated by IcoMoon.io -->
<svg version="1.1" xmlns="http://www.w3.org/2000/svg" width="32" height="32" viewBox="0 0 32 32">
<title>bottom-arrow</title>
<path d="M3 16c0 7.243 5.871 13.113 13.113 13.113s13.113-5.87 13.113-13.113c0-7.242-5.871-13.113-13.113-13.113s-13.113 5.871-13.113 13.113zM28.177 16c0 6.652-5.412 12.064-12.064 12.064s-12.064-5.412-12.064-12.064 5.411-12.064 12.064-12.064c6.652 0 12.064 5.412 12.064 12.064zM10.475 16.796l-0.742 0.742 6.379 6.379 6.378-6.379-0.742-0.742-5.112 5.112v-12.727h-1.049v12.727z"></path>
</svg>
