<?xml version="1.0" encoding="utf-8"?>
<!-- Generator: Adobe Illustrator 16.0.0, SVG Export Plug-In . SVG Version: 6.00 Build 0)  -->
<!DOCTYPE svg PUBLIC "-//W3C//DTD SVG 1.1//EN" "http://www.w3.org/Graphics/SVG/1.1/DTD/svg11.dtd">
<svg version="1.1" id="Layer_1" xmlns="http://www.w3.org/2000/svg" xmlns:xlink="http://www.w3.org/1999/xlink" x="0px" y="0px"
	 width="50px" height="50px" viewBox="0 0 50 50" enable-background="new 0 0 50 50" xml:space="preserve">
<g>
	<g>
		<path d="M44.223,14.175c-1.087-1.081-2.396-1.622-3.932-1.622h-4.865l-1.106-2.938c-0.275-0.705-0.778-1.314-1.511-1.825
			c-0.73-0.511-1.48-0.768-2.247-0.768H19.439c-0.768,0-1.517,0.256-2.248,0.768c-0.732,0.511-1.235,1.121-1.51,1.825l-1.107,2.938
			H9.709c-1.535,0-2.845,0.541-3.931,1.622s-1.629,2.383-1.629,3.91v19.36c0,1.525,0.543,2.83,1.629,3.91s2.396,1.621,3.931,1.621
			h30.582c1.535,0,2.845-0.541,3.932-1.621c1.084-1.08,1.629-2.385,1.629-3.91v-19.36C45.852,16.559,45.309,15.256,44.223,14.175z
			 M31.874,34.604C29.97,36.496,27.68,37.445,25,37.445c-2.679,0-4.97-0.949-6.875-2.842s-2.856-4.174-2.856-6.838
			c0-2.667,0.952-4.944,2.856-6.839s4.196-2.841,6.875-2.841c2.68,0,4.97,0.947,6.874,2.841s2.856,4.172,2.856,6.839
			C34.73,30.43,33.778,32.709,31.874,34.604z M25,21.542c-1.723,0-3.196,0.609-4.42,1.827c-1.223,1.216-1.835,2.682-1.835,4.396
			c0,1.713,0.612,3.18,1.835,4.396c1.224,1.217,2.697,1.826,4.42,1.826c1.723,0,3.196-0.609,4.42-1.826
			c1.223-1.217,1.835-2.684,1.835-4.396c0-1.715-0.612-3.18-1.835-4.396C28.196,22.151,26.723,21.542,25,21.542z"/>
	</g>
</g>
</svg>
