<!-- Generated by IcoMoon.io -->
<svg version="1.1" xmlns="http://www.w3.org/2000/svg" width="32" height="32" viewBox="0 0 32 32">
<title>camera-2</title>
<path d="M28.303 9.072c-0.696-0.692-1.533-1.038-2.516-1.038h-3.114l-0.708-1.88c-0.176-0.451-0.498-0.841-0.967-1.168-0.467-0.327-0.947-0.492-1.438-0.492h-7.119c-0.492 0-0.971 0.164-1.439 0.492s-0.79 0.717-0.966 1.168l-0.708 1.88h-3.114c-0.982 0-1.821 0.346-2.516 1.038s-1.043 1.525-1.043 2.502v12.39c0 0.976 0.348 1.811 1.043 2.502s1.533 1.037 2.516 1.037h19.572c0.982 0 1.821-0.346 2.516-1.037 0.694-0.691 1.043-1.526 1.043-2.502v-12.39c0-0.977-0.348-1.811-1.043-2.502zM20.399 22.147c-1.219 1.211-2.684 1.818-4.399 1.818s-3.181-0.607-4.4-1.819-1.828-2.671-1.828-4.376c0-1.707 0.609-3.164 1.828-4.377s2.685-1.818 4.4-1.818c1.715 0 3.181 0.606 4.399 1.818s1.828 2.67 1.828 4.377c0 1.706-0.609 3.164-1.828 4.377zM16 13.787c-1.103 0-2.045 0.39-2.829 1.169-0.783 0.778-1.174 1.716-1.174 2.813s0.392 2.035 1.174 2.813c0.783 0.779 1.726 1.169 2.829 1.169s2.045-0.39 2.829-1.169c0.783-0.779 1.174-1.718 1.174-2.813 0-1.098-0.392-2.035-1.174-2.813-0.783-0.78-1.726-1.169-2.829-1.169z"></path>
</svg>
