<!-- Generated by IcoMoon.io -->
<svg version="1.1" xmlns="http://www.w3.org/2000/svg" width="32" height="32" viewBox="0 0 32 32">
<title>chat-2</title>
<path d="M18.269 19.599c1.523-0.653 2.724-1.542 3.606-2.67 0.881-1.124 1.322-2.351 1.322-3.676 0-1.327-0.44-2.553-1.322-3.679s-2.083-2.015-3.606-2.669c-1.523-0.653-3.179-0.98-4.969-0.98s-3.446 0.328-4.969 0.98c-1.523 0.654-2.724 1.543-3.605 2.669s-1.321 2.352-1.321 3.679c0 1.135 0.333 2.204 0.998 3.206 0.665 1.001 1.58 1.845 2.741 2.532-0.093 0.228-0.19 0.439-0.289 0.631-0.097 0.19-0.214 0.374-0.351 0.548-0.136 0.179-0.241 0.316-0.316 0.415-0.075 0.102-0.197 0.243-0.366 0.424-0.169 0.18-0.276 0.3-0.323 0.358 0-0.010-0.019 0.012-0.056 0.064s-0.059 0.076-0.064 0.072c-0.004-0.006-0.023 0.017-0.056 0.070s-0.049 0.079-0.049 0.079l-0.035 0.072c-0.013 0.029-0.024 0.056-0.028 0.085-0.004 0.030-0.006 0.060-0.006 0.093 0 0.035 0.005 0.065 0.014 0.093 0.019 0.124 0.073 0.224 0.161 0.301 0.090 0.075 0.186 0.113 0.289 0.113h0.042c0.468-0.065 0.872-0.143 1.209-0.227 1.443-0.383 2.746-0.993 3.908-1.832 0.844 0.152 1.668 0.23 2.474 0.23 1.789 0 3.446-0.326 4.968-0.981zM27.596 20.129c0.666-0.998 0.998-2.067 0.998-3.213 0-1.174-0.352-2.272-1.055-3.293-0.703-1.020-1.66-1.869-2.868-2.547 0.216 0.716 0.323 1.439 0.323 2.176 0 1.277-0.313 2.489-0.941 3.634s-1.527 2.155-2.699 3.035c-1.087 0.801-2.324 1.416-3.711 1.846s-2.834 0.643-4.343 0.643c-0.281 0-0.693-0.019-1.236-0.056 1.882 1.26 4.095 1.89 6.633 1.89 0.806 0 1.631-0.077 2.475-0.23 1.162 0.839 2.465 1.45 3.907 1.831 0.338 0.088 0.74 0.164 1.21 0.23 0.112 0.009 0.216-0.025 0.309-0.1 0.093-0.076 0.155-0.18 0.183-0.315-0.005-0.058 0-0.089 0.013-0.093s0.012-0.034-0.007-0.092c-0.018-0.058-0.028-0.088-0.028-0.088l-0.035-0.070c-0.010-0.020-0.027-0.046-0.049-0.079-0.024-0.033-0.042-0.058-0.056-0.071-0.013-0.016-0.035-0.039-0.063-0.071-0.028-0.035-0.047-0.056-0.056-0.065-0.048-0.056-0.155-0.179-0.323-0.358-0.17-0.181-0.291-0.323-0.366-0.422s-0.18-0.24-0.316-0.415c-0.136-0.176-0.253-0.36-0.352-0.55-0.099-0.193-0.195-0.403-0.288-0.63 1.162-0.689 2.076-1.532 2.741-2.528z"></path>
</svg>
