<?xml version="1.0" encoding="utf-8"?>
<!-- Generator: Adobe Illustrator 16.0.0, SVG Export Plug-In . SVG Version: 6.00 Build 0)  -->
<!DOCTYPE svg PUBLIC "-//W3C//DTD SVG 1.1//EN" "http://www.w3.org/Graphics/SVG/1.1/DTD/svg11.dtd">
<svg version="1.1" id="Layer_1" xmlns="http://www.w3.org/2000/svg" xmlns:xlink="http://www.w3.org/1999/xlink" x="0px" y="0px"
	 width="50px" height="50px" viewBox="0 0 50 50" enable-background="new 0 0 50 50" xml:space="preserve">
<g>
	<g>
		<path d="M28.546,30.623c2.379-1.02,4.257-2.41,5.634-4.172c1.377-1.757,2.065-3.674,2.065-5.744c0-2.073-0.688-3.989-2.065-5.748
			c-1.376-1.76-3.254-3.149-5.634-4.171c-2.379-1.02-4.967-1.532-7.764-1.532c-2.796,0-5.385,0.513-7.764,1.532
			c-2.379,1.022-4.257,2.411-5.633,4.171c-1.377,1.761-2.064,3.675-2.064,5.748c0,1.773,0.52,3.443,1.559,5.01
			c1.039,1.564,2.468,2.883,4.283,3.957c-0.146,0.357-0.297,0.686-0.451,0.986c-0.152,0.297-0.335,0.584-0.548,0.857
			c-0.213,0.279-0.377,0.494-0.494,0.648c-0.117,0.16-0.308,0.379-0.572,0.662c-0.264,0.281-0.432,0.469-0.505,0.559
			c0-0.016-0.029,0.018-0.087,0.1c-0.059,0.082-0.092,0.119-0.1,0.113c-0.006-0.01-0.036,0.027-0.087,0.109
			s-0.077,0.123-0.077,0.123l-0.055,0.113c-0.021,0.045-0.037,0.088-0.044,0.133c-0.007,0.047-0.01,0.094-0.01,0.145
			c0,0.055,0.008,0.102,0.022,0.146c0.029,0.193,0.114,0.35,0.252,0.471c0.14,0.117,0.29,0.176,0.451,0.176h0.065
			c0.732-0.102,1.362-0.223,1.889-0.355c2.255-0.598,4.291-1.551,6.106-2.863c1.318,0.238,2.606,0.359,3.865,0.359
			C23.579,32.156,26.167,31.646,28.546,30.623z M43.119,31.451c1.04-1.559,1.56-3.23,1.56-5.02c0-1.835-0.55-3.55-1.648-5.146
			c-1.099-1.593-2.593-2.92-4.481-3.979c0.337,1.119,0.504,2.249,0.504,3.4c0,1.996-0.489,3.889-1.471,5.678
			c-0.981,1.789-2.386,3.367-4.217,4.742c-1.698,1.252-3.631,2.213-5.798,2.885c-2.166,0.672-4.428,1.004-6.786,1.004
			c-0.439,0-1.083-0.029-1.932-0.088c2.941,1.969,6.398,2.953,10.364,2.953c1.26,0,2.548-0.121,3.867-0.359
			c1.815,1.311,3.851,2.266,6.105,2.861c0.528,0.137,1.157,0.256,1.89,0.359c0.175,0.014,0.337-0.039,0.483-0.156
			c0.146-0.119,0.242-0.281,0.286-0.492c-0.008-0.09,0-0.139,0.021-0.146c0.022-0.006,0.019-0.053-0.011-0.143
			c-0.028-0.09-0.043-0.137-0.043-0.137l-0.054-0.109c-0.016-0.031-0.042-0.072-0.077-0.123c-0.037-0.051-0.066-0.09-0.088-0.111
			c-0.021-0.025-0.055-0.061-0.099-0.111c-0.043-0.055-0.073-0.088-0.087-0.102c-0.075-0.088-0.242-0.279-0.505-0.559
			c-0.265-0.283-0.455-0.504-0.572-0.66c-0.117-0.156-0.281-0.375-0.494-0.648c-0.213-0.275-0.396-0.563-0.55-0.859
			c-0.154-0.301-0.304-0.629-0.45-0.984C40.652,34.324,42.08,33.008,43.119,31.451z"/>
	</g>
</g>
</svg>
