<!-- Generated by IcoMoon.io -->
<svg version="1.1" xmlns="http://www.w3.org/2000/svg" width="32" height="32" viewBox="0 0 32 32">
<title>choose-on-map</title>
<path d="M26.173 1.079h-20.344c-2.619 0-4.75 2.13-4.75 4.75v20.344c0 2.619 2.13 4.748 4.75 4.748h20.344c2.619 0 4.75-2.129 4.75-4.748v-20.344c0-2.619-2.13-4.75-4.75-4.75zM3.142 26.173v-20.344c0-1.483 1.205-2.688 2.686-2.688h13.681c-1.128 1.187-1.824 2.792-1.824 4.555 0 1.027 0.536 2.427 1.28 3.881l-3.694 3.694c0 0 0 0.002-0.002 0.002l-11.924 11.924c-0.133-0.314-0.204-0.661-0.204-1.022zM26.173 28.858h-20.344c-0.363 0-0.709-0.075-1.024-0.203l11.195-11.195 11.195 11.197c-0.314 0.128-0.66 0.201-1.022 0.201zM28.859 26.173c0 0.361-0.075 0.709-0.203 1.024l-11.197-11.197 2.552-2.552c1.47 2.446 3.151 4.658 3.473 5.076 0.197 0.253 0.497 0.402 0.818 0.402s0.622-0.149 0.818-0.402c0.34-0.443 2.211-2.903 3.738-5.521v13.17zM24.303 16.171c-2.024-2.787-4.556-6.821-4.556-8.475 0-2.511 2.045-4.555 4.556-4.555s4.556 2.043 4.556 4.555c0 1.656-2.533 5.688-4.556 8.475zM13.836 8.57h-3.96c-0.57 0-1.032 0.462-1.032 1.032s0.462 1.032 1.032 1.032h2.74c-0.416 1.106-1.489 1.897-2.74 1.897-1.614 0-2.927-1.314-2.927-2.929s1.314-2.929 2.927-2.929c0.782 0 1.518 0.305 2.071 0.858 0.404 0.402 1.056 0.402 1.458 0 0.404-0.404 0.404-1.056 0-1.46-0.942-0.942-2.196-1.461-3.529-1.461-2.752 0-4.99 2.24-4.99 4.99s2.24 4.99 4.99 4.99c2.752 0 4.99-2.24 4.99-4.99 0.002-0.568-0.46-1.030-1.030-1.030z"></path>
</svg>
