<?xml version="1.0" encoding="utf-8"?>
<!-- Generator: Adobe Illustrator 16.0.0, SVG Export Plug-In . SVG Version: 6.00 Build 0)  -->
<!DOCTYPE svg PUBLIC "-//W3C//DTD SVG 1.1//EN" "http://www.w3.org/Graphics/SVG/1.1/DTD/svg11.dtd">
<svg version="1.1" id="Layer_1" xmlns="http://www.w3.org/2000/svg" xmlns:xlink="http://www.w3.org/1999/xlink" x="0px" y="0px"
	 width="20px" height="21px" viewBox="0 0 20 21" enable-background="new 0 0 20 21" xml:space="preserve">
<g>
	<g>
		<path d="M16.676,0.708H3.325c-1.719,0-3.117,1.398-3.117,3.117v13.351c0,1.719,1.398,3.116,3.117,3.116h13.351
			c1.719,0,3.117-1.397,3.117-3.116V3.825C19.793,2.106,18.395,0.708,16.676,0.708z M1.562,17.176V3.825
			c0-0.973,0.791-1.764,1.763-1.764h8.978c-0.74,0.779-1.197,1.832-1.197,2.989c0,0.674,0.352,1.593,0.84,2.547l-2.423,2.423
			l-0.001,0.001c0,0,0,0.001-0.001,0.001l-7.825,7.825C1.609,17.641,1.562,17.413,1.562,17.176z M16.676,18.938H3.325
			c-0.238,0-0.465-0.049-0.672-0.133L10,11.458l7.347,7.348C17.141,18.89,16.914,18.938,16.676,18.938z M18.439,17.176
			c0,0.237-0.049,0.465-0.133,0.672L10.958,10.5l1.675-1.675c0.965,1.605,2.068,3.057,2.279,3.331
			c0.129,0.166,0.326,0.264,0.537,0.264s0.408-0.098,0.537-0.264c0.223-0.291,1.451-1.905,2.453-3.623V17.176z M15.449,10.612
			c-1.328-1.829-2.99-4.476-2.99-5.562c0-1.648,1.342-2.989,2.99-2.989s2.99,1.341,2.99,2.989
			C18.439,6.137,16.777,8.783,15.449,10.612z M8.58,5.624H5.981c-0.374,0-0.677,0.303-0.677,0.677s0.303,0.677,0.677,0.677h1.798
			C7.506,7.704,6.802,8.223,5.981,8.223c-1.059,0-1.921-0.862-1.921-1.922s0.862-1.922,1.921-1.922c0.513,0,0.996,0.2,1.359,0.563
			c0.265,0.264,0.693,0.264,0.957,0c0.265-0.265,0.265-0.693,0-0.958C7.679,3.366,6.856,3.025,5.981,3.025
			c-1.806,0-3.275,1.47-3.275,3.275s1.47,3.275,3.275,3.275c1.806,0,3.275-1.47,3.275-3.275C9.257,5.927,8.954,5.624,8.58,5.624z"/>
	</g>
</g>
</svg>
