<?xml version="1.0" encoding="utf-8"?>
<!-- Generator: Adobe Illustrator 16.0.0, SVG Export Plug-In . SVG Version: 6.00 Build 0)  -->
<!DOCTYPE svg PUBLIC "-//W3C//DTD SVG 1.1//EN" "http://www.w3.org/Graphics/SVG/1.1/DTD/svg11.dtd">
<svg version="1.1" id="Layer_1" xmlns="http://www.w3.org/2000/svg" xmlns:xlink="http://www.w3.org/1999/xlink" x="0px" y="0px"
	 width="25px" height="25px" viewBox="0 0 25 25" enable-background="new 0 0 25 25" xml:space="preserve">
<g>
	<path d="M12.5,0C5.597,0,0,5.597,0,12.5S5.597,25,12.5,25S25,19.403,25,12.5S19.403,0,12.5,0z M12.5,22.826
		c-5.703,0-10.326-4.623-10.326-10.326S6.797,2.174,12.5,2.174S22.826,6.797,22.826,12.5S18.203,22.826,12.5,22.826z M16.47,8.915
		L16.086,8.53c-0.318-0.318-0.836-0.318-1.154,0L12.5,10.962L10.068,8.53c-0.318-0.318-0.836-0.318-1.153,0L8.53,8.915
		c-0.317,0.319-0.317,0.835,0,1.153l2.433,2.432L8.53,14.932c-0.317,0.318-0.317,0.835,0,1.153l0.385,0.385
		c0.317,0.317,0.835,0.317,1.153,0l2.432-2.433l2.432,2.433c0.318,0.317,0.836,0.317,1.154,0l0.384-0.385
		c0.317-0.318,0.317-0.835,0-1.153L14.037,12.5l2.433-2.432C16.787,9.75,16.787,9.233,16.47,8.915z"/>
</g>
</svg>
