<?xml version="1.0" encoding="utf-8"?>
<!-- Generator: Adobe Illustrator 16.0.0, SVG Export Plug-In . SVG Version: 6.00 Build 0)  -->
<!DOCTYPE svg PUBLIC "-//W3C//DTD SVG 1.1//EN" "http://www.w3.org/Graphics/SVG/1.1/DTD/svg11.dtd">
<svg version="1.1" id="Layer_1" xmlns="http://www.w3.org/2000/svg" xmlns:xlink="http://www.w3.org/1999/xlink" x="0px" y="0px"
	 width="20px" height="20px" viewBox="0 0 20 20" enable-background="new 0 0 20 20" xml:space="preserve">
<path d="M10,0C4.478,0,0,4.478,0,10s4.478,10,10,10s10-4.478,10-10S15.522,0,10,0z M10,18.261c-4.563,0-8.261-3.698-8.261-8.261
	S5.438,1.739,10,1.739S18.261,5.438,18.261,10S14.563,18.261,10,18.261z M13.176,7.132l-0.307-0.308
	c-0.255-0.254-0.669-0.254-0.924,0L10,8.77L8.054,6.824c-0.254-0.254-0.668-0.254-0.922,0L6.824,7.132
	c-0.255,0.255-0.255,0.668,0,0.922L8.771,10l-1.946,1.945c-0.255,0.255-0.255,0.668,0,0.922l0.308,0.309
	c0.254,0.254,0.667,0.254,0.922,0L10,11.229l1.945,1.946c0.255,0.254,0.669,0.254,0.924,0l0.307-0.309
	c0.254-0.254,0.254-0.667,0-0.922L11.229,10l1.946-1.946C13.43,7.8,13.43,7.387,13.176,7.132z"/>
</svg>
