<!-- Generated by IcoMoon.io -->
<svg version="1.1" xmlns="http://www.w3.org/2000/svg" width="32" height="32" viewBox="0 0 32 32">
<title>close-3</title>
<path d="M16 0c-8.835 0-16 7.165-16 16s7.165 16 16 16 16-7.165 16-16-7.165-16-16-16zM16 29.218c-7.301 0-13.218-5.917-13.218-13.218s5.918-13.218 13.218-13.218 13.218 5.918 13.218 13.218-5.917 13.218-13.218 13.218zM21.082 11.411l-0.491-0.493c-0.408-0.406-1.070-0.406-1.478 0l-3.112 3.114-3.114-3.114c-0.406-0.406-1.069-0.406-1.475 0l-0.493 0.493c-0.408 0.408-0.408 1.069 0 1.475l3.115 3.114-3.114 3.112c-0.408 0.408-0.408 1.069 0 1.475l0.493 0.494c0.406 0.406 1.067 0.406 1.475 0l3.112-3.115 3.112 3.114c0.408 0.406 1.070 0.406 1.478 0l0.491-0.494c0.406-0.406 0.406-1.067 0-1.475l-3.115-3.11 3.114-3.114c0.408-0.406 0.408-1.067 0.002-1.475z"></path>
</svg>
