<!-- Generated by IcoMoon.io -->
<svg version="1.1" xmlns="http://www.w3.org/2000/svg" width="32" height="32" viewBox="0 0 32 32">
<title>coin-icon</title>
<path d="M16.002 32v-0.769l-0.001 0.769c-8.822 0-16-7.178-16.001-16s7.178-16 16-16c8.823 0 16 7.178 16 16s-7.177 16-15.998 16zM16 1.538c-7.974 0-14.462 6.488-14.462 14.462s6.489 14.462 14.463 14.462h0.001c7.974 0 14.461-6.488 14.461-14.462s-6.488-14.462-14.462-14.462zM16.001 25.166c-2.907 0-5.272-2.229-5.272-4.968 0-0.425 0.344-0.769 0.769-0.769s0.769 0.344 0.769 0.769c0 1.891 1.675 3.43 3.735 3.43s3.734-1.539 3.734-3.43c0-1.891-1.675-3.43-3.734-3.43-2.907 0-5.272-2.229-5.272-4.968s2.365-4.968 5.272-4.968c1.561 0 3.032 0.646 4.036 1.772 0.283 0.317 0.255 0.803-0.062 1.085s-0.803 0.255-1.085-0.062c-0.713-0.799-1.765-1.258-2.889-1.258-2.059 0-3.735 1.538-3.735 3.43s1.675 3.43 3.735 3.43c2.907 0 5.272 2.229 5.272 4.968s-2.365 4.968-5.272 4.968zM15.86 27.464c-0.425 0-0.769-0.344-0.769-0.769v-21.39c0-0.425 0.344-0.769 0.769-0.769s0.769 0.344 0.769 0.769v21.39c0 0.425-0.344 0.769-0.769 0.769z"></path>
</svg>
