<!-- Generated by IcoMoon.io -->
<svg version="1.1" xmlns="http://www.w3.org/2000/svg" width="32" height="32" viewBox="0 0 32 32">
<title>demographics</title>
<path d="M14.437 16.724c-0.133-1.105 0.45-1.866 0.45-1.866l4.405-6.826c0.563-0.824-0.143-1.076-0.484-1.197-1.38-0.486-2.895-0.755-4.486-0.755-6.378 0-11.549 4.321-11.549 9.651 0 5.28 5.075 9.569 11.371 9.651 0.060 0 0.119 0 0.178 0 0.371 0 1.18-0.106 0.988-1.028 0 0-0.615-5.476-0.873-7.629zM29.222 13.871c-0.27-3.115-2.308-5.822-5.282-7.418-0.245-0.131-0.763-0.373-1.218 0.346l-4.664 7.226c0 0-0.433 0.551 0.528 0.551 2.666 0 9.95 0 9.95 0 0.685-0.001 0.705-0.472 0.685-0.705zM26.936 16.373c0 0-7.799 0-10.398 0-0.705 0-0.623 0.493-0.623 0.493l0.974 8.515c0.084 0.703 0.733 0.534 1.057 0.484 5.197-0.794 9.18-4.493 9.446-9.009 0.010-0.161 0.056-0.484-0.457-0.484z"></path>
</svg>
