<!-- Generated by IcoMoon.io -->
<svg version="1.1" xmlns="http://www.w3.org/2000/svg" width="32" height="32" viewBox="0 0 32 32">
<title>direction-1</title>
<path d="M13.867 16.53c0-0.936-0.183-1.844-0.545-2.699-0.349-0.826-0.85-1.568-1.485-2.204s-1.378-1.137-2.204-1.486c-1.71-0.723-3.687-0.723-5.398 0-0.825 0.349-1.567 0.849-2.204 1.486s-1.137 1.378-1.485 2.204c-0.362 0.855-0.545 1.763-0.545 2.699 0 0.625 0.083 1.245 0.248 1.843 0.115 0.418 0.292 0.851 0.568 1.381l5.655 9.843c0.095 0.165 0.271 0.268 0.463 0.268s0.367-0.102 0.463-0.268l5.666-9.863c0.266-0.511 0.443-0.944 0.557-1.361 0.164-0.597 0.247-1.217 0.247-1.843zM12.591 18.090c-0.095 0.344-0.246 0.71-0.465 1.133l-5.192 9.038-5.181-9.018c-0.23-0.443-0.381-0.809-0.476-1.153-0.139-0.506-0.209-1.030-0.209-1.56 0-0.792 0.155-1.561 0.461-2.284 0.295-0.698 0.718-1.326 1.257-1.865s1.167-0.962 1.865-1.258c0.723-0.306 1.491-0.461 2.283-0.461s1.56 0.155 2.283 0.461c0.698 0.295 1.326 0.719 1.865 1.258s0.961 1.166 1.257 1.865c0.306 0.723 0.461 1.491 0.461 2.284-0 0.53-0.071 1.055-0.21 1.56zM6.933 13.33c-1.765 0-3.2 1.436-3.2 3.2s1.435 3.2 3.2 3.2 3.2-1.435 3.2-3.2c0-1.765-1.435-3.2-3.2-3.2zM6.933 18.664c-1.177 0-2.133-0.957-2.133-2.134s0.957-2.134 2.133-2.134 2.133 0.957 2.133 2.134-0.957 2.134-2.133 2.134zM31.622 5.063c-0.241-0.571-0.587-1.085-1.028-1.526s-0.955-0.787-1.526-1.028c-1.184-0.501-2.553-0.501-3.737 0-0.571 0.241-1.084 0.587-1.525 1.029s-0.787 0.955-1.028 1.525c-0.251 0.592-0.377 1.221-0.377 1.869 0 0.433 0.058 0.862 0.172 1.276 0.080 0.291 0.203 0.591 0.396 0.962l3.77 6.562c0.095 0.166 0.271 0.268 0.463 0.268s0.367-0.102 0.463-0.268l3.781-6.582c0.182-0.351 0.305-0.651 0.385-0.942 0.114-0.414 0.172-0.843 0.172-1.276 0-0.648-0.127-1.277-0.377-1.869zM30.8 7.925c-0.060 0.217-0.156 0.45-0.293 0.714l-3.307 5.757-3.296-5.737c-0.147-0.283-0.244-0.516-0.304-0.733-0.089-0.322-0.133-0.655-0.133-0.993 0-0.505 0.099-0.994 0.293-1.453 0.187-0.444 0.457-0.843 0.8-1.187s0.743-0.613 1.187-0.801c0.46-0.195 0.949-0.293 1.453-0.293s0.993 0.099 1.453 0.293c0.444 0.188 0.843 0.457 1.187 0.8s0.613 0.743 0.8 1.187c0.195 0.459 0.293 0.948 0.293 1.453-0 0.337-0.045 0.671-0.133 0.993zM27.198 4.8c-1.177 0-2.133 0.957-2.133 2.134s0.957 2.133 2.133 2.133 2.133-0.957 2.133-2.133c0-1.177-0.957-2.134-2.133-2.134zM27.198 8c-0.588 0-1.067-0.478-1.067-1.067s0.479-1.067 1.067-1.067c0.588 0 1.067 0.479 1.067 1.067s-0.478 1.067-1.067 1.067zM23.735 21.861h-3.734c-1.616 0-2.931-1.315-2.931-2.931s1.315-2.931 2.931-2.931h4.535c0.295 0 0.533-0.239 0.533-0.533s-0.239-0.533-0.533-0.533h-4.535c-2.204 0-3.997 1.793-3.997 3.998s1.793 3.998 3.997 3.998h3.734c1.619 0 2.935 1.317 2.935 2.935s-1.317 2.936-2.935 2.936h-7.73c-0.295 0-0.533 0.239-0.533 0.533s0.239 0.533 0.533 0.533h7.73c2.207 0 4.002-1.796 4.002-4.003s-1.795-4.002-4.002-4.002zM9.227 28.954c-0.096 0.101-0.155 0.235-0.155 0.379 0 0.139 0.059 0.278 0.155 0.373 0.101 0.101 0.24 0.16 0.379 0.16s0.278-0.059 0.379-0.155c0.096-0.101 0.155-0.24 0.155-0.379 0-0.144-0.059-0.283-0.155-0.378-0.197-0.198-0.56-0.198-0.757-0.001zM11.36 28.954c-0.096 0.101-0.155 0.235-0.155 0.379 0 0.139 0.059 0.278 0.16 0.379 0.096 0.096 0.235 0.155 0.373 0.155 0.144 0 0.278-0.059 0.379-0.155 0.102-0.101 0.155-0.24 0.155-0.379 0-0.144-0.053-0.277-0.155-0.379-0.197-0.197-0.56-0.197-0.757 0zM13.498 28.954c-0.101 0.096-0.155 0.235-0.155 0.379 0 0.139 0.054 0.278 0.155 0.379 0.096 0.096 0.235 0.155 0.379 0.155 0.139 0 0.278-0.059 0.373-0.155 0.101-0.101 0.16-0.24 0.16-0.379 0-0.144-0.058-0.277-0.16-0.379-0.197-0.197-0.56-0.197-0.752 0z"></path>
</svg>
