<!-- Generated by IcoMoon.io -->
<svg version="1.1" xmlns="http://www.w3.org/2000/svg" width="32" height="32" viewBox="0 0 32 32">
<title>documents</title>
<path d="M24.86 6.494h-0.732v17.654c0 1.172-0.972 2.127-2.166 2.127h-13.307v0.655c0 0.749 0.619 1.357 1.382 1.357h14.82c0.763 0 1.383-0.608 1.383-1.357v-19.078c0.001-0.749-0.616-1.357-1.379-1.357zM14.55 25.505h7.41c0.763 0 1.382-0.607 1.382-1.357v-19.078c0-0.75-0.619-1.358-1.382-1.358h-9.874v0.449c0.005 0.046 0.008 0.095 0.008 0.145v3.719c0 1.053-0.873 1.911-1.947 1.911h-3.786c-0.039 0-0.081-0.003-0.12-0.005h-0.481v14.218c0 0.749 0.619 1.357 1.382 1.357h7.408zM9.998 12.856h9.665c0.361 0 0.653 0.287 0.653 0.641s-0.292 0.642-0.653 0.642h-9.665c-0.36 0-0.653-0.287-0.653-0.642s0.294-0.641 0.653-0.641zM9.998 16.333h9.665c0.361 0 0.653 0.287 0.653 0.641 0 0.355-0.292 0.642-0.653 0.642h-9.665c-0.36 0-0.653-0.287-0.653-0.642 0.001-0.354 0.294-0.641 0.653-0.641zM9.998 19.608h4.834c0.36 0 0.653 0.288 0.653 0.641 0 0.355-0.295 0.642-0.656 0.642h-4.831c-0.36 0-0.653-0.287-0.653-0.642 0-0.353 0.293-0.641 0.653-0.641zM6.361 9.165h3.786c0.003 0 0.008 0 0.010 0 0.633-0.005 1.145-0.508 1.15-1.13 0-0.002 0-0.008 0-0.010v-3.72c0-0.344-0.287-0.573-0.585-0.573-0.144 0-0.288 0.051-0.408 0.17l-4.366 4.288c-0.367 0.36-0.108 0.975 0.412 0.975z"></path>
</svg>
