<!-- Generated by IcoMoon.io -->
<svg version="1.1" xmlns="http://www.w3.org/2000/svg" width="32" height="32" viewBox="0 0 32 32">
<title>dropdown</title>
<path d="M22.114 12.497l-6.191 6.195-6.193-6.195c-0.416-0.418-1.097-0.418-1.515 0-0.416 0.418-0.416 1.097 0 1.515l6.948 6.946c0.211 0.213 0.489 0.316 0.759 0.311 0.277 0 0.55-0.1 0.759-0.311l6.946-6.946c0.418-0.418 0.418-1.097 0-1.515s-1.094-0.418-1.515 0zM16 0.009c-8.83 0-15.989 7.159-15.989 15.991-0.002 8.834 7.155 15.991 15.989 15.991 8.832 0 15.989-7.157 15.989-15.989s-7.157-15.994-15.989-15.994v0zM16 29.85c-7.633 0-13.847-6.212-13.847-13.847s6.214-13.847 13.847-13.847c7.633-0.002 13.847 6.212 13.847 13.847s-6.214 13.847-13.847 13.847z"></path>
</svg>
