<!-- Generated by IcoMoon.io -->
<svg version="1.1" xmlns="http://www.w3.org/2000/svg" width="32" height="32" viewBox="0 0 32 32">
<title>external-links</title>
<path d="M22.93 9.827l-0.432-0.433c-1.427-1.429-3.741-1.427-5.165 0l-1.558 1.56c0.173-0.019 0.343-0.051 0.52-0.051 0.71 0 1.389 0.173 2.012 0.47l0.502-0.502c0.62-0.623 1.612-0.603 2.214 0l0.432 0.432c0.619 0.62 0.604 1.61 0.001 2.214l-4.264 4.269c-0.616 0.618-1.61 0.607-2.211 0.002-0.333-0.333-0.55-0.5-0.73-0.877l-1.513 1.514c0.28 0.377 0.378 0.451 0.764 0.837 1.419 1.428 3.739 1.432 5.166 0.001l4.262-4.268c1.426-1.425 1.428-3.743 0-5.17zM16.084 21.38c-0.712 0-1.398-0.163-2.021-0.461l-0.87 0.872c-0.616 0.618-1.61 0.607-2.211 0.002l-0.436-0.434c-0.609-0.611-0.614-1.6-0.005-2.211l4.301-4.305c0.62-0.622 1.611-0.603 2.213 0 0.302 0.302 0.567 0.52 0.733 0.87l1.506-1.508c-0.279-0.373-0.362-0.436-0.764-0.839-1.427-1.429-3.741-1.427-5.165 0l-4.298 4.302c-1.456 1.454-1.389 3.775 0.006 5.169l0.429 0.429c1.419 1.428 3.739 1.433 5.166 0.002l1.912-1.915c-0.164 0.018-0.329 0.028-0.497 0.028 0.001 0 0.001 0 0 0z"></path>
</svg>
