<?xml version="1.0" encoding="utf-8"?>
<!-- Generator: Adobe Illustrator 16.0.0, SVG Export Plug-In . SVG Version: 6.00 Build 0)  -->
<!DOCTYPE svg PUBLIC "-//W3C//DTD SVG 1.1//EN" "http://www.w3.org/Graphics/SVG/1.1/DTD/svg11.dtd">
<svg version="1.1" id="Layer_1" xmlns="http://www.w3.org/2000/svg" xmlns:xlink="http://www.w3.org/1999/xlink" x="0px" y="0px"
	 width="50px" height="50px" viewBox="0 0 50 50" enable-background="new 0 0 50 50" xml:space="preserve">
<g>
	<g>
		<path d="M35.828,15.354l-0.675-0.676c-2.229-2.233-5.846-2.229-8.07,0l-2.435,2.438c0.271-0.029,0.536-0.079,0.813-0.079
			c1.11,0,2.171,0.27,3.144,0.734l0.784-0.784c0.969-0.973,2.518-0.942,3.459,0l0.675,0.675c0.967,0.968,0.944,2.516,0.002,3.46
			l-6.662,6.67c-0.962,0.966-2.515,0.948-3.455,0.003c-0.521-0.521-0.86-0.781-1.141-1.371l-2.364,2.366
			c0.438,0.589,0.59,0.705,1.193,1.308c2.217,2.231,5.842,2.238,8.072,0.002l6.66-6.668C38.056,21.205,38.059,17.583,35.828,15.354z
			 M25.131,33.406c-1.113,0-2.184-0.254-3.158-0.721l-1.36,1.362c-0.962,0.966-2.515,0.949-3.455,0.003l-0.681-0.678
			c-0.952-0.954-0.96-2.5-0.008-3.454l6.72-6.726c0.968-0.972,2.517-0.942,3.458,0c0.472,0.472,0.886,0.813,1.146,1.359l2.353-2.356
			c-0.436-0.583-0.565-0.682-1.193-1.311c-2.229-2.233-5.846-2.229-8.07,0l-6.716,6.722c-2.275,2.272-2.17,5.899,0.009,8.076
			l0.671,0.67c2.217,2.232,5.842,2.239,8.072,0.003l2.988-2.992C25.65,33.391,25.393,33.406,25.131,33.406
			C25.132,33.406,25.132,33.406,25.131,33.406z"/>
	</g>
</g>
</svg>
