<?xml version="1.0" encoding="utf-8"?>
<!-- Generator: Adobe Illustrator 16.0.0, SVG Export Plug-In . SVG Version: 6.00 Build 0)  -->
<!DOCTYPE svg PUBLIC "-//W3C//DTD SVG 1.1//EN" "http://www.w3.org/Graphics/SVG/1.1/DTD/svg11.dtd">
<svg version="1.1" id="Layer_1" xmlns="http://www.w3.org/2000/svg" xmlns:xlink="http://www.w3.org/1999/xlink" x="0px" y="0px"
	 width="27px" height="27px" viewBox="0 0 27 27" enable-background="new 0 0 27 27" xml:space="preserve">
<path d="M13.5,0C6.043,0,0,6.044,0,13.5C0,20.955,6.043,27,13.5,27S27,20.955,27,13.5C27,6.044,20.956,0,13.5,0z M18.65,6.876
	h-1.868c-1.464,0-1.745,0.696-1.745,1.718v2.25h3.49l-0.002,3.526h-3.488v9.049h-3.643V14.37H8.35v-3.526h3.044v-2.6
	c0-3.019,1.843-4.662,4.536-4.662l2.721,0.004V6.876L18.65,6.876z"/>
</svg>
