<!-- Generated by IcoMoon.io -->
<svg version="1.1" xmlns="http://www.w3.org/2000/svg" width="32" height="32" viewBox="0 0 32 32">
<title>geo-location</title>
<path d="M16.007 25.854c-5.387 0-9.77-4.383-9.77-9.77s4.383-9.77 9.77-9.77c5.388 0 9.771 4.383 9.771 9.77-0.001 5.387-4.383 9.77-9.771 9.77zM16.007 7.314c-4.836 0-8.77 3.934-8.77 8.77s3.934 8.77 8.77 8.77 8.771-3.934 8.771-8.77-3.935-8.77-8.771-8.77zM16.007 20.068c-2.197 0-3.984-1.787-3.984-3.984s1.787-3.984 3.984-3.984c2.197 0 3.984 1.787 3.984 3.984s-1.787 3.984-3.984 3.984zM16.007 13.1c-1.646 0-2.984 1.338-2.984 2.984s1.338 2.984 2.984 2.984 2.984-1.339 2.984-2.984-1.339-2.984-2.984-2.984zM2.685 15.584h5.843v1h-5.843v-1zM23.473 15.584h5.842v1h-5.842v-1zM15.506 23.389h1v5.842h-1v-5.842zM15.506 2.77h1v5.842h-1v-5.842z"></path>
</svg>
