<!-- Generated by IcoMoon.io -->
<svg version="1.1" xmlns="http://www.w3.org/2000/svg" width="32" height="32" viewBox="0 0 32 32">
<title>google-plus</title>
<path d="M24.558 14.636h-11.46v3.82h6.992c-1.043 3.321-4.145 5.73-7.811 5.73-4.521 0-8.186-3.665-8.186-8.186s3.665-8.186 8.186-8.186c2.277 0 4.336 0.93 5.82 2.43l2.773-3.014c-2.215-2.17-5.247-3.509-8.593-3.509-6.781-0-12.279 5.497-12.279 12.279s5.498 12.279 12.279 12.279c5.94 0 11.141-4.219 12.279-9.823v-3.82l-0-0zM32 14.629h-2.344v-2.344h-2.009v2.344h-2.344v2.009h2.344v2.344h2.009v-2.344h2.344z"></path>
</svg>
