<!-- Generated by IcoMoon.io -->
<svg version="1.1" xmlns="http://www.w3.org/2000/svg" width="32" height="32" viewBox="0 0 32 32">
<title>hand</title>
<path d="M26.51 6.261c-0.768-0.766-1.918-0.96-2.878-0.574 0-0.576-0.19-1.152-0.768-1.726-0.381-0.384-1.15-0.768-2.109-0.768-0.574 0-0.96 0.192-1.344 0.192 0-0.384-0.192-0.574-0.384-0.96-0.96-1.152-2.878-1.152-3.837 0-0.384 0.384-0.766 0.766-0.766 1.152-0.384 0-0.768-0.192-1.152-0.192-0.96 0-1.536 0.384-2.11 0.96-0.96 0.96-0.96 2.496-0.96 2.496v7.291c-0.576-0.578-1.536-1.536-2.88-1.536-0.384 0-0.96 0.19-1.344 0.382-0.766 0.384-1.152 0.96-1.344 1.726-0.574 1.92 1.152 4.605 1.152 4.8 0.192 0.19 2.302 5.181 4.222 7.291 1.918 2.302 4.030 3.646 9.403 3.646 5.566 0 8.059-3.069 8.059-9.787v-10.555c0-0.192 0.19-2.494-0.96-3.838zM15.957 5.494c0-0.574-0.192-1.918 0.96-1.918 0.962 0 0.962 0.96 0.962 1.918v7.675c0 0.574 0.382 0.96 0.96 0.96 0.574 0 0.96-0.384 0.96-0.96v-7.291c0 0 0-0.768 0.96-0.768 1.15 0 0.96 1.728 0.96 1.728v6.333c0 0.574 0.384 0.96 0.96 0.96s0.96-0.384 0.96-0.96v-4.606c0-0.192 0-1.152 0.96-1.152s0.96 1.92 0.96 1.92v11.322c0 6.525-2.494 7.869-6.141 7.869-4.606 0-6.333-0.96-7.867-3.072-1.728-1.918-4.030-6.909-4.030-7.101-0.576-0.574-1.344-2.302-1.152-3.069 0-0.192 0.192-0.384 0.382-0.576 0.192 0 0.384-0.19 0.384-0.19 0.766 0 1.536 0.96 1.726 1.342l1.152 1.728c0.192 0.382 0.766 0.576 1.152 0.382 0.766 0 0.96-0.382 0.96-0.766v-9.981c0-0.766 0-1.918 0.96-1.918 0.766 0 0.96 0.576 0.96 1.536v6.333c0 0.574 0.384 0.96 0.96 0.96s0.96-0.384 0.96-0.96v-7.677z"></path>
</svg>
