<!-- Generated by IcoMoon.io -->
<svg version="1.1" xmlns="http://www.w3.org/2000/svg" width="32" height="32" viewBox="0 0 32 32">
<title>industrial-fenced-yard</title>
<path d="M25.102 5.78l-2.391 3.387v2.66h-1.238v-2.663l-2.464-3.383-2.39 3.387v2.66h-1.239v-2.664l-2.462-3.384-2.39 3.387v2.66h-1.239v-2.663l-2.463-3.384-2.389 3.387v16.694h4.852v-3.763h1.239v3.763h4.853v-3.763h1.239v3.763h4.854v-3.763h1.238v3.763h4.852v-16.697l-2.462-3.384zM8.289 24.861h-2.852v-15.376l1.402-1.988 1.45 1.992v15.372zM9.289 21.099v-8.271h1.239v8.271h-1.239zM14.38 24.861h-2.852v-15.376l1.403-1.988 1.45 1.992v15.372zM15.38 21.099v-8.271h1.239v8.271h-1.239zM20.473 24.861h-2.854v-15.376l1.403-1.988 1.45 1.992v15.372zM21.473 21.099v-8.271h1.238v8.271h-1.238zM26.563 24.861h-2.852v-15.376l1.402-1.988 1.449 1.992v15.372z"></path>
</svg>
