<!-- Generated by IcoMoon.io -->
<svg version="1.1" xmlns="http://www.w3.org/2000/svg" width="32" height="32" viewBox="0 0 32 32">
<title>intractive-map</title>
<path d="M6.417 11.375v12.657c0 0.308 0.193 0.58 0.48 0.676l5.375 1.832v-14.165l-4.925-1.677c-0.456-0.157-0.93 0.188-0.93 0.676zM25.103 12.214l-1.017-0.348c-0.224 0.632-0.584 1.336-1.078 2.111-0.652 1.021-1.53 2.136-2.538 3.218-0.202 0.216-0.461 0.369-0.741 0.44v6.913l4.922 1.677c0.457 0.154 0.932-0.189 0.932-0.678v-12.657c0-0.308-0.193-0.579-0.48-0.677zM15.728 14.003c-0.513-0.799-0.885-1.518-1.111-2.154l-1.544 0.527v14.165l5.854-1.996v-6.924c-0.261-0.079-0.502-0.224-0.69-0.429-0.979-1.058-1.844-2.161-2.509-3.189zM21.79 14.499c0.643-0.879 1.26-1.827 1.627-2.861 0.085-0.237 0.148-0.464 0.186-0.674 0.084-0.344 0.13-0.703 0.13-1.075 0-2.442-1.954-4.423-4.367-4.43-0.004 0-0.010 0-0.012 0-2.362 0-4.31 1.915-4.376 4.304-0.012 0.415 0.033 0.817 0.127 1.201 0.038 0.205 0.099 0.424 0.184 0.657 0.404 1.127 1.048 2.15 1.77 3.097 0.468 0.614 1.436 2.249 2.296 2.249 0.913 0 1.961-1.818 2.436-2.468zM19.354 12.128c-0.146 0-0.287-0.013-0.426-0.040-0.685-0.128-1.264-0.566-1.591-1.165-0.184-0.335-0.287-0.719-0.287-1.128 0-1.289 1.034-2.334 2.307-2.334s2.307 1.045 2.307 2.334c0 0.417-0.108 0.808-0.297 1.146-0.339 0.603-0.936 1.041-1.638 1.159-0.122 0.019-0.247 0.029-0.374 0.029z"></path>
</svg>
