<!-- Generated by IcoMoon.io -->
<svg version="1.1" xmlns="http://www.w3.org/2000/svg" width="32" height="32" viewBox="0 0 32 32">
<title>languge</title>
<path d="M4.832 17.262c0.14 0.086 0.318 0.098 0.468 0.027l2.953-1.351c0.058 4.506-2.741 7.45-3.302 7.996-0.132 0.128-0.18 0.318-0.118 0.489l0.404 1.154c0.055 0.156 0.19 0.274 0.356 0.31 0.034 0.010 0.071 0.012 0.106 0.012 0.13 0 0.258-0.053 0.352-0.146 1.042-1.055 2.063-2.529 2.8-4.043l3.47 1.37c0.246 0.096 0.527-0.017 0.631-0.255l0.654-1.476c0.052-0.118 0.053-0.25 0.002-0.368-0.049-0.121-0.146-0.214-0.268-0.262l-3.606-1.423c0.213-0.774 0.703-2.752 0.678-4.359l2.656-1.259c0.169-0.079 0.274-0.245 0.274-0.428l0.002-1.556c0-0.164-0.085-0.316-0.228-0.404-0.142-0.087-0.319-0.097-0.47-0.027l-7.771 3.607c-0.171 0.079-0.281 0.247-0.279 0.433l0.009 1.562c0.001 0.16 0.087 0.311 0.229 0.396zM21.526 19.647l2.3 0.964-1.175-5.323-1.125 4.359zM31.375 13.945v-12.485c0-0.284-0.146-0.551-0.391-0.709s-0.555-0.182-0.823-0.070l-14.15 5.969-14.175-5.778c-0.268-0.113-0.578-0.087-0.823 0.070-0.245 0.155-0.391 0.422-0.391 0.708v12.026c0 0.010-0.004 0.017-0.004 0.026v16.462c0 0.286 0.146 0.553 0.391 0.709 0.144 0.091 0.311 0.138 0.478 0.138 0.118 0 0.235-0.025 0.346-0.070l14.176-5.977 14.161 6.354c0.111 0.048 0.229 0.071 0.343 0.071 0.169 0 0.334-0.046 0.479-0.135 0.245-0.159 0.391-0.427 0.391-0.709v-16.465c0-0.036-0.002-0.084-0.007-0.134zM16.001 23.115l-13.646 5.755v-14.614l13.658-5.76-0.012 14.619zM27.232 26.954c-0.090 0.078-0.202 0.116-0.316 0.116-0.065 0-0.129-0.012-0.193-0.038l-1.286-0.54c-0.142-0.058-0.246-0.18-0.282-0.327l-0.748-3.094-3.422-1.433-0.638 2.154c-0.038 0.132-0.134 0.24-0.261 0.298-0.128 0.060-0.274 0.063-0.401 0.007l-1.376-0.577c-0.23-0.094-0.345-0.341-0.276-0.575l3.258-10.548c0.039-0.129 0.134-0.236 0.261-0.294 0.128-0.058 0.272-0.059 0.399-0.005l1.682 0.705c0.139 0.059 0.242 0.177 0.282 0.32l3.473 13.353c0.046 0.176-0.015 0.364-0.156 0.479zM29.634 12.021l-11.359-4.48 11.359-4.79v9.27z"></path>
</svg>
