<?xml version="1.0" encoding="utf-8"?>
<!-- Generator: Adobe Illustrator 16.0.0, SVG Export Plug-In . SVG Version: 6.00 Build 0)  -->
<!DOCTYPE svg PUBLIC "-//W3C//DTD SVG 1.1//EN" "http://www.w3.org/Graphics/SVG/1.1/DTD/svg11.dtd">
<svg version="1.1" id="Layer_1" xmlns="http://www.w3.org/2000/svg" xmlns:xlink="http://www.w3.org/1999/xlink" x="0px" y="0px"
	 width="27px" height="27px" viewBox="0 0 27 27" enable-background="new 0 0 27 27" xml:space="preserve">
<path d="M13.519,0C6.053,0,0,6.043,0,13.5C0,20.955,6.053,27,13.519,27c7.465,0,13.518-6.045,13.518-13.5
	C27.037,6.043,20.984,0,13.519,0z M8.453,22.641h-3.8V10.429h3.8V22.641z M6.554,8.759c-1.218,0-2.204-0.986-2.204-2.2
	c0-1.214,0.986-2.201,2.204-2.201c1.215,0,2.202,0.987,2.202,2.201C8.756,7.773,7.768,8.759,6.554,8.759z M22.688,22.641h-3.799
	v-5.938c0-1.418-0.025-3.238-1.975-3.238c-1.977,0-2.281,1.542-2.281,3.135v6.041h-3.796V10.429h3.646v1.668h0.051
	c0.508-0.959,1.746-1.973,3.596-1.973c3.848,0,4.559,2.53,4.559,5.817V22.641L22.688,22.641z"/>
</svg>
