<!-- Generated by IcoMoon.io -->
<svg version="1.1" xmlns="http://www.w3.org/2000/svg" width="32" height="32" viewBox="0 0 32 32">
<title>linkedin-2</title>
<path d="M16.023 0c-8.849 0-16.023 7.162-16.023 16 0 8.836 7.174 16 16.023 16 8.847 0 16.021-7.164 16.021-16 0-8.838-7.174-16-16.021-16zM10.018 26.834h-4.504v-14.473h4.504v14.473zM7.768 10.381c-1.444 0-2.612-1.169-2.612-2.607s1.169-2.609 2.612-2.609c1.44 0 2.61 1.17 2.61 2.609s-1.171 2.607-2.61 2.607zM26.889 26.834h-4.503v-7.038c0-1.681-0.030-3.838-2.341-3.838-2.343 0-2.703 1.828-2.703 3.716v7.16h-4.499v-14.473h4.321v1.977h0.060c0.602-1.137 2.069-2.338 4.262-2.338 4.561 0 5.403 2.999 5.403 6.894v7.941h-0.001z"></path>
</svg>
