<!-- Generated by IcoMoon.io -->
<svg version="1.1" xmlns="http://www.w3.org/2000/svg" width="32" height="32" viewBox="0 0 32 32">
<title>medium-logo</title>
<path d="M31.999 7.407c-0.008-0.185-0.118-0.358-0.285-0.44l-9.953-4.976c-0.236-0.118-0.523-0.040-0.666 0.181l-6.725 10.346-3.463-5.368c-0.050-0.077-0.122-0.141-0.204-0.183l-9.953-4.976c-0.339-0.169-0.75 0.086-0.75 0.464v4.976c0 0.286 0.232 0.518 0.518 0.518s0.518-0.232 0.518-0.518v-4.138l8.916 4.458v20.957l-8.916-4.458v-14.608c0-0.286-0.232-0.518-0.518-0.518s-0.518 0.232-0.518 0.518v14.929c0 0.196 0.111 0.376 0.287 0.464l9.953 4.976c0.339 0.17 0.75-0.086 0.75-0.464v-9.667l20.261 10.13c0.339 0.17 0.75-0.086 0.75-0.464v-22.117c0-0.008-0.001-0.016-0.001-0.024zM10.989 18.721v-9.531l9.077 14.070-9.077-4.539zM30.963 28.708l-8.709-4.354 6.786-11.687c0.144-0.248 0.059-0.565-0.188-0.709s-0.565-0.060-0.709 0.188l-6.638 11.432-6.52-10.106 6.726-10.347 9.045 4.522-1.649 2.84c-0.144 0.248-0.059 0.565 0.188 0.709s0.565 0.060 0.709-0.188l0.96-1.653v19.353z"></path>
</svg>
