<!-- Generated by IcoMoon.io -->
<svg version="1.1" xmlns="http://www.w3.org/2000/svg" width="32" height="32" viewBox="0 0 32 32">
<title>minus</title>
<path d="M8.021 15.485v1.066h15.958v-1.066h-15.958zM25.818 28.958h-19.635c-1.732 0-3.141-1.409-3.141-3.141v-19.635c0-1.731 1.409-3.14 3.141-3.14h19.636c1.731 0 3.14 1.409 3.14 3.14v19.635c-0.001 1.732-1.409 3.141-3.141 3.141zM6.183 4.042c-1.18 0-2.141 0.96-2.141 2.14v19.635c0 1.181 0.96 2.141 2.141 2.141h19.636c1.18 0 2.14-0.96 2.14-2.141v-19.635c0-1.18-0.96-2.14-2.14-2.14h-19.636z"></path>
</svg>
