<!-- Generated by IcoMoon.io -->
<svg version="1.1" xmlns="http://www.w3.org/2000/svg" width="32" height="32" viewBox="0 0 32 32">
<title>nearby-school</title>
<path d="M27.771 23.232v0-5.137l-0.675-4.051h-6.427l2.088 1.564v2.479l-1.348-0.999v0.492h-0.4v5.652h-0.417v-6.194h0.4v-0.744h-0.618l-4.684-3.453-4.525 3.537h-0.548v0.745h0.451v6.11h-0.439v-5.569h-0.451v-0.311l-0.958 0.797v-2.528l1.919-1.576h-6.646l-0.675 4.051v5.137h-0.329v1.942h25.021v-1.942h-0.74zM6.782 22.23h-2.236v-1.226h2.236v1.226zM6.782 20.272h-2.236v-1.224h2.236v1.224zM7.709 22.23v-1.226h2.235v1.226h-2.235zM7.709 20.272v-1.224h2.235v1.224h-2.235zM15.776 14.358c0.49 0 0.885 0.398 0.885 0.887s-0.396 0.887-0.885 0.887c-0.489 0-0.886-0.397-0.886-0.887s0.397-0.887 0.886-0.887zM19.374 23.231h-0.491v-5.592h-6.349v5.592h-0.445v-6.109h0.428v-0.287h6.58v0.203h0.278v6.194zM23.651 22.103h-2.235v-1.226h2.235v1.226zM23.651 20.145h-2.235v-1.224h2.235v1.224zM26.813 22.103h-2.235v-1.226h2.235v1.226zM26.813 20.145h-2.235v-1.224h2.235v1.224zM15.708 10.743h-0.136v-3.656h0.285v0.069c0.312 0.137 1.069 0.396 1.495-0.067 0.546-0.593 1.501 0 1.501 0v1.687c0 0-0.773-0.637-1.501 0-0.554 0.485-1.212 0.232-1.495 0.083v1.884h-0.148l6.63 4.968v1.412l-6.707-4.969-5.974 4.969v-1.412l6.049-4.968z"></path>
</svg>
