<!-- Generated by IcoMoon.io -->
<svg version="1.1" xmlns="http://www.w3.org/2000/svg" width="32" height="32" viewBox="0 0 32 32">
<title>overview</title>
<path d="M30.973 15.338c-0.063-0.077-1.565-1.927-4.142-3.785-1.528-1.102-3.115-1.972-4.728-2.601 2.031 1.697 3.321 4.224 3.321 7.047s-1.29 5.351-3.321 7.048c1.613-0.628 3.2-1.5 4.728-2.601 2.577-1.856 4.079-3.708 4.142-3.785l0.532-0.661-0.532-0.662zM9.897 8.953c-1.612 0.628-3.2 1.499-4.728 2.601-2.575 1.857-4.078 3.707-4.141 3.785l-0.533 0.661 0.533 0.661c0.063 0.077 1.565 1.928 4.141 3.785 1.528 1.101 3.116 1.972 4.728 2.601-2.031-1.696-3.32-4.224-3.32-7.048-0.001-2.822 1.289-5.35 3.32-7.046zM17.809 10.522l-1.809 3.636-1.809-3.636c-2.355 0.749-4.058 2.918-4.058 5.478 0 3.18 2.627 5.757 5.867 5.757s5.867-2.577 5.867-5.757c0-2.56-1.702-4.729-4.058-5.478z"></path>
</svg>
