<!-- Generated by IcoMoon.io -->
<svg version="1.1" xmlns="http://www.w3.org/2000/svg" width="32" height="32" viewBox="0 0 32 32">
<title>Phone-number</title>
<path d="M23.471 20.286c-0.175-0.175-0.414-0.273-0.664-0.273s-0.487 0.097-0.664 0.273l-1.238 1.24-6.018-6.017 1.238-1.238c0.367-0.369 0.367-0.962 0-1.328l-3.629-3.628c-0.183-0.184-0.424-0.276-0.663-0.276-0.241 0-0.481 0.093-0.664 0.276l-1.239 1.24c-1.567 1.566 0.731 6.401 5.13 10.8 3.462 3.462 7.194 5.62 9.391 5.62 0.595 0 1.076-0.158 1.409-0.492l-0.002-0.003 1.243-1.237c0.365-0.367 0.365-0.962 0-1.327l-3.629-3.63zM15.999 25.903c-5.46 0-9.903-4.442-9.903-9.903 0-5.784 4.749-9.905 9.903-9.905 5.462 0 9.904 4.444 9.904 9.905 0 1.288-0.255 2.516-0.703 3.646l1.896 1.896c0.838-1.671 1.322-3.549 1.322-5.544 0-6.845-5.571-12.415-12.419-12.415-6.846 0-12.416 5.571-12.416 12.417s5.57 12.417 12.416 12.417c1.607 0 3.139-0.318 4.55-0.876-0.938-0.465-1.919-1.062-2.92-1.784-0.531 0.089-1.073 0.146-1.63 0.146z"></path>
</svg>
