<!-- Generated by IcoMoon.io -->
<svg version="1.1" xmlns="http://www.w3.org/2000/svg" width="32" height="32" viewBox="0 0 32 32">
<title>pinterest-logo</title>
<path d="M29.856 7.969c-1.431-2.451-3.372-4.392-5.823-5.823s-5.128-2.146-8.031-2.146c-2.903 0-5.58 0.715-8.031 2.146s-4.392 3.371-5.823 5.823c-1.431 2.452-2.146 5.129-2.146 8.031 0 3.236 0.882 6.174 2.646 8.813 1.764 2.64 4.076 4.591 6.938 5.855-0.056-1.486 0.035-2.715 0.271-3.687l2.063-8.709c-0.347-0.681-0.521-1.527-0.521-2.542 0-1.18 0.298-2.166 0.896-2.958s1.326-1.188 2.188-1.188c0.694 0 1.229 0.229 1.604 0.687s0.562 1.035 0.562 1.729c0 0.43-0.080 0.955-0.24 1.573s-0.368 1.333-0.625 2.146c-0.257 0.812-0.441 1.462-0.552 1.948-0.194 0.847-0.035 1.573 0.479 2.177s1.195 0.907 2.042 0.907c1.486 0 2.705-0.826 3.656-2.479s1.427-3.66 1.427-6.021c0-1.82-0.587-3.299-1.761-4.438s-2.809-1.709-4.907-1.709c-2.347 0-4.246 0.754-5.698 2.261s-2.177 3.309-2.177 5.407c0 1.25 0.354 2.299 1.062 3.146 0.236 0.278 0.313 0.576 0.229 0.896-0.028 0.083-0.083 0.292-0.167 0.625s-0.139 0.549-0.166 0.646c-0.111 0.444-0.375 0.583-0.792 0.417-1.069-0.444-1.882-1.215-2.437-2.312s-0.833-2.368-0.833-3.812c0-0.931 0.149-1.861 0.448-2.792s0.764-1.83 1.396-2.698c0.632-0.868 1.389-1.636 2.271-2.302s1.955-1.201 3.219-1.604 2.625-0.604 4.083-0.604c1.973 0 3.743 0.437 5.312 1.312s2.767 2.007 3.594 3.396c0.827 1.389 1.24 2.875 1.24 4.459 0 2.083-0.361 3.958-1.083 5.625s-1.743 2.976-3.063 3.927c-1.32 0.952-2.819 1.427-4.5 1.427-0.847 0-1.639-0.198-2.375-0.594s-1.243-0.864-1.521-1.406c-0.625 2.458-1 3.924-1.125 4.396-0.264 0.986-0.805 2.125-1.625 3.416 1.486 0.444 3 0.666 4.542 0.666 2.903 0 5.58-0.715 8.031-2.146s4.392-3.371 5.823-5.822c1.431-2.452 2.146-5.129 2.146-8.032s-0.713-5.58-2.144-8.031z"></path>
</svg>
