<!-- Generated by IcoMoon.io -->
<svg version="1.1" xmlns="http://www.w3.org/2000/svg" width="32" height="32" viewBox="0 0 32 32">
<title>preferred-location</title>
<path d="M16.005 1.458h-0.011c-6.011 0-10.901 4.992-10.901 11.128 0 2.384 0.768 4.749 2.166 6.659l8.264 11.298h0.949l8.266-11.298c1.397-1.91 2.166-4.275 2.166-6.659 0.002-6.136-4.888-11.128-10.899-11.128zM23.402 18.226l-7.402 10.118-7.403-10.118c-1.182-1.618-1.834-3.621-1.834-5.64 0-5.197 4.141-9.424 9.232-9.424h0.011c5.091 0 9.232 4.227 9.232 9.424-0.003 2.019-0.653 4.022-1.837 5.64zM16 8.899c-1.842 0-3.339 1.53-3.339 3.408s1.498 3.408 3.339 3.408c1.84 0 3.338-1.528 3.338-3.408s-1.498-3.408-3.338-3.408zM16 14.011c-0.922 0-1.67-0.765-1.67-1.704s0.749-1.704 1.67-1.704c0.92 0 1.669 0.765 1.669 1.704s-0.749 1.704-1.669 1.704z"></path>
</svg>
