<!-- Generated by IcoMoon.io -->
<svg version="1.1" xmlns="http://www.w3.org/2000/svg" width="32" height="32" viewBox="0 0 32 32">
<title>retail</title>
<path d="M1.575 27.35h28.85v1h-28.85v-1zM20.809 26.070h-1v-21.030l-7.93 4.824v16.206h-1v-16.768l9.93-6.042zM4.386 26.070h-1v-10.017l5.539-3.519 0.536 0.844-5.075 3.225zM28.363 26.070h-1v-9.424l-5.016-3.271 0.547-0.838 5.469 3.567zM13.86 22.135h1v2.016h-1v-2.016zM16.857 22.135h1v2.016h-1v-2.016zM13.86 17.639h1v2.014h-1v-2.014zM6.742 22.135h1v2.016h-1v-2.016zM6.742 17.639h1v2.014h-1v-2.014zM23.602 22.135h1v2.016h-1v-2.016zM23.602 17.639h1v2.014h-1v-2.014zM16.857 17.639h1v2.014h-1v-2.014zM13.86 12.769h1v2.013h-1v-2.013zM16.857 12.769h1v2.013h-1v-2.013z"></path>
</svg>
