<!-- Generated by IcoMoon.io -->
<svg version="1.1" xmlns="http://www.w3.org/2000/svg" width="32" height="32" viewBox="0 0 32 32">
<title>school</title>
<path d="M31.489 16.34h-6.979v-3.643c0-0.019-0.001-0.037-0.003-0.056-0-0.005-0.001-0.009-0.002-0.014-0.002-0.014-0.004-0.028-0.007-0.041-0.001-0.005-0.003-0.010-0.004-0.015-0.003-0.013-0.007-0.025-0.011-0.038-0.002-0.005-0.004-0.010-0.006-0.015-0.004-0.012-0.009-0.024-0.014-0.035-0.003-0.005-0.005-0.010-0.008-0.015-0.006-0.011-0.012-0.022-0.018-0.033-0.003-0.005-0.006-0.010-0.009-0.015-0.007-0.011-0.014-0.021-0.022-0.032-0.003-0.004-0.006-0.008-0.009-0.012-0.011-0.014-0.023-0.027-0.036-0.040-0.001-0.001-0.003-0.002-0.004-0.004-0.012-0.011-0.024-0.022-0.036-0.032-0.001-0.001-0.002-0.002-0.003-0.003l-7.806-6.179v-5.098h4.46v1.906h-2.928c-0.282 0-0.511 0.229-0.511 0.511s0.229 0.511 0.511 0.511h3.438c0.282 0 0.511-0.229 0.511-0.511v-2.928c0-0.282-0.229-0.511-0.511-0.511h-5.482c-0.282 0-0.511 0.229-0.511 0.511v5.608l-7.806 6.179c-0.001 0.001-0.002 0.002-0.003 0.003-0.013 0.010-0.025 0.021-0.036 0.033-0.001 0.001-0.003 0.002-0.004 0.003-0.013 0.013-0.025 0.026-0.036 0.040-0.003 0.004-0.006 0.008-0.009 0.013-0.008 0.010-0.015 0.021-0.022 0.032-0.003 0.005-0.006 0.010-0.009 0.015-0.007 0.011-0.013 0.021-0.018 0.033-0.003 0.005-0.005 0.010-0.007 0.016-0.005 0.012-0.010 0.023-0.015 0.035-0.002 0.005-0.004 0.010-0.006 0.015-0.004 0.012-0.008 0.025-0.011 0.038-0.001 0.005-0.003 0.010-0.004 0.015-0.003 0.014-0.005 0.027-0.007 0.041-0.001 0.005-0.002 0.009-0.002 0.014-0.002 0.018-0.003 0.037-0.003 0.056v3.643h-6.98c-0.282 0-0.511 0.229-0.511 0.51v14.638c0 0.282 0.229 0.511 0.511 0.511h30.979c0.282 0 0.511-0.229 0.511-0.511v-14.638c-0-0.282-0.229-0.511-0.511-0.511zM30.979 17.362v1.702h-6.468v-1.702h6.468zM7.489 17.362v1.702h-6.468v-1.702h6.468zM20.085 22.581v6.355h-3.574v-6.355h3.574zM15.489 28.936h-3.574v-6.355h3.575v6.355zM11.915 29.957h8.17v1.021h-8.17v-1.021zM21.106 30.979v-8.908c0-0.282-0.229-0.511-0.511-0.511h-9.191c-0.282 0-0.511 0.229-0.511 0.511v8.908h-9.872v-10.894h6.468v9.361c0 0.282 0.229 0.511 0.511 0.511s0.511-0.229 0.511-0.511v-16.238h9.362c0.282 0 0.511-0.229 0.511-0.511s-0.229-0.511-0.511-0.511h-8.404l6.532-5.17 6.532 5.17h-2.617c-0.282 0-0.511 0.229-0.511 0.511s0.229 0.511 0.511 0.511h3.575v16.238c0 0.282 0.229 0.511 0.511 0.511s0.511-0.229 0.511-0.511v-9.361h6.468v10.894h-9.872zM3.007 21.56c-0.282 0-0.511 0.229-0.511 0.511v2.042c0 0.282 0.229 0.511 0.511 0.511s0.511-0.229 0.511-0.511v-2.042c0-0.282-0.229-0.511-0.511-0.511zM5.504 21.56c-0.282 0-0.511 0.229-0.511 0.511v2.042c0 0.282 0.229 0.511 0.511 0.511s0.511-0.229 0.511-0.511v-2.042c-0-0.282-0.229-0.511-0.511-0.511zM28.993 21.56c-0.282 0-0.511 0.229-0.511 0.511v2.042c0 0.282 0.229 0.511 0.511 0.511s0.511-0.229 0.511-0.511v-2.042c0-0.282-0.228-0.511-0.511-0.511zM26.496 21.56c-0.282 0-0.511 0.229-0.511 0.511v2.042c0 0.282 0.229 0.511 0.511 0.511s0.511-0.229 0.511-0.511v-2.042c0-0.282-0.229-0.511-0.511-0.511zM16 14.91c-1.364 0-2.474 1.11-2.474 2.474s1.11 2.474 2.474 2.474 2.474-1.11 2.474-2.474c0-1.364-1.11-2.474-2.474-2.474zM16 18.837c-0.801 0-1.452-0.652-1.452-1.453s0.652-1.452 1.452-1.452 1.452 0.652 1.452 1.452c0 0.801-0.651 1.453-1.452 1.453z"></path>
</svg>
