<?xml version="1.0" encoding="utf-8"?>
<!-- Generator: Adobe Illustrator 16.0.0, SVG Export Plug-In . SVG Version: 6.00 Build 0)  -->
<!DOCTYPE svg PUBLIC "-//W3C//DTD SVG 1.1//EN" "http://www.w3.org/Graphics/SVG/1.1/DTD/svg11.dtd">
<svg version="1.1" id="Layer_1" xmlns="http://www.w3.org/2000/svg" xmlns:xlink="http://www.w3.org/1999/xlink" x="0px" y="0px"
	 width="20px" height="21px" viewBox="0 0 20 21" enable-background="new 0 0 20 21" xml:space="preserve">
<path d="M18.33,18.582l-4.373-4.375c1.174-1.349,1.883-3.108,1.883-5.032c0-4.235-3.441-7.675-7.67-7.675
	C3.938,1.5,0.5,4.944,0.5,9.175s3.442,7.675,7.67,7.675c1.922,0,3.682-0.711,5.029-1.884l4.373,4.374
	c0.104,0.104,0.242,0.16,0.379,0.16c0.135,0,0.274-0.053,0.379-0.16C18.537,19.133,18.537,18.789,18.33,18.582z M1.572,9.175
	c0-3.64,2.96-6.598,6.594-6.598c3.638,0,6.594,2.962,6.594,6.598s-2.956,6.601-6.594,6.601C4.532,15.775,1.572,12.814,1.572,9.175z"
	/>
</svg>
