<!-- Generated by IcoMoon.io -->
<svg version="1.1" xmlns="http://www.w3.org/2000/svg" width="32" height="32" viewBox="0 0 32 32">
<title>search-2</title>
<path d="M28.693 28.315l-6.664-6.667c1.789-2.056 2.869-4.736 2.869-7.668 0-6.453-5.243-11.695-11.688-11.695-6.449 0-11.688 5.248-11.688 11.695s5.245 11.695 11.688 11.695c2.929 0 5.611-1.083 7.663-2.871l6.664 6.665c0.158 0.158 0.369 0.244 0.578 0.244 0.206 0 0.418-0.081 0.578-0.244 0.315-0.315 0.315-0.84 0-1.155zM3.157 13.981c0-5.547 4.51-10.054 10.048-10.054 5.544 0 10.048 4.514 10.048 10.054s-4.504 10.059-10.048 10.059c-5.538-0.002-10.048-4.514-10.048-10.059z"></path>
</svg>
