<?xml version="1.0" encoding="utf-8"?>
<!-- Generator: Adobe Illustrator 16.0.0, SVG Export Plug-In . SVG Version: 6.00 Build 0)  -->
<!DOCTYPE svg PUBLIC "-//W3C//DTD SVG 1.1//EN" "http://www.w3.org/Graphics/SVG/1.1/DTD/svg11.dtd">
<svg version="1.1" id="Layer_1" xmlns="http://www.w3.org/2000/svg" xmlns:xlink="http://www.w3.org/1999/xlink" x="0px" y="0px"
	 width="97px" height="83px" viewBox="0 0 97 83" enable-background="new 0 0 97 83" xml:space="preserve">
<g>
	<path d="M55.875,47.336c-3.802-3.121-7.895-5.305-9.304-6.024v-5.564c0.846-0.741,1.336-1.816,1.336-2.966V26.12
		c0-3.833-3.122-6.954-6.954-6.954h-1.431c-3.832,0-6.954,3.121-6.954,6.954v6.661c0,1.149,0.491,2.225,1.336,2.966v5.564
		c-1.409,0.711-5.502,2.903-9.303,6.024c-0.971,0.794-1.524,1.975-1.524,3.227v4.563c0,0.522,0.428,0.952,0.95,0.952
		c0.521,0,0.95-0.43,0.95-0.952v-4.563c0-0.689,0.303-1.335,0.825-1.765c4.062-3.33,8.458-5.554,9.304-5.962
		c0.428-0.209,0.699-0.637,0.699-1.117v-6.432c0-0.313-0.157-0.616-0.417-0.782c-0.575-0.387-0.919-1.024-0.919-1.713V26.13
		c0-2.788,2.265-5.053,5.053-5.053h1.431c2.788,0,5.054,2.265,5.054,5.053v6.662c0,0.688-0.345,1.326-0.919,1.713
		c-0.261,0.177-0.417,0.469-0.417,0.782v6.422c0,0.47,0.271,0.908,0.7,1.116c0.845,0.407,5.242,2.632,9.302,5.963
		c0.522,0.429,0.825,1.075,0.825,1.765v4.563c0,0.522,0.428,0.949,0.95,0.949s0.95-0.427,0.95-0.949v-4.563
		C57.398,49.3,56.846,48.13,55.875,47.336z"/>
	<path d="M42.447,42.606c-0.522,0-0.95,0.428-0.95,0.95c0,0.365-0.157,0.689-0.407,0.92c-0.052,0.03-0.105,0.072-0.157,0.125
		c-0.198,0.136-0.438,0.219-0.699,0.219c-0.7,0-1.264-0.564-1.264-1.264c0-0.522-0.428-0.95-0.95-0.95
		c-0.521,0-0.95,0.428-0.95,0.95c0,0.741,0.261,1.42,0.689,1.962L37.09,60.941c-0.01,0.282,0.105,0.555,0.313,0.742l2.12,1.91
		c0.178,0.167,0.407,0.24,0.637,0.24c0.229,0,0.459-0.084,0.637-0.24l2.15-1.941c0.209-0.188,0.324-0.46,0.314-0.742l-0.69-15.234
		c0.512-0.563,0.814-1.294,0.814-2.108C43.397,43.034,42.968,42.606,42.447,42.606z M40.17,61.61l-1.148-1.044l0.605-13.93
		c0.199,0.042,0.408,0.063,0.627,0.063c0.167,0,0.324-0.021,0.491-0.042l0.626,13.877L40.17,61.61z"/>
	<g>
		<path fill="none" d="M62.241,34.062v14.722h0.997c0.262,0,0.475,0.213,0.475,0.475s-0.213,0.475-0.475,0.475h-0.997v0.95h3.798
			v-2.374c0-0.263,0.213-0.476,0.476-0.476h2.85c0.262,0,0.474,0.213,0.474,0.476v2.374h0.95V28.268h-8.547V34.062z M68.177,30.263
			c0-0.262,0.212-0.475,0.474-0.475h0.714c0.262,0,0.474,0.213,0.474,0.475v0.712c0,0.263-0.212,0.476-0.474,0.476H68.65
			c-0.262,0-0.474-0.213-0.474-0.476V30.263z M68.177,33.111c0-0.262,0.212-0.475,0.474-0.475h0.714
			c0.262,0,0.474,0.213,0.474,0.475v0.713c0,0.263-0.212,0.475-0.474,0.475H68.65c-0.262,0-0.474-0.212-0.474-0.475V33.111z
			 M68.177,35.961c0-0.262,0.212-0.475,0.474-0.475h0.714c0.262,0,0.474,0.213,0.474,0.475v0.712c0,0.263-0.212,0.476-0.474,0.476
			H68.65c-0.262,0-0.474-0.213-0.474-0.476V35.961z M68.177,38.811c0-0.262,0.212-0.475,0.474-0.475h0.714
			c0.262,0,0.474,0.213,0.474,0.475v0.712c0,0.263-0.212,0.476-0.474,0.476H68.65c-0.262,0-0.474-0.213-0.474-0.476V38.811z
			 M68.177,41.66c0-0.263,0.212-0.475,0.474-0.475h0.714c0.262,0,0.474,0.212,0.474,0.475v0.713c0,0.262-0.212,0.475-0.474,0.475
			H68.65c-0.262,0-0.474-0.213-0.474-0.475V41.66z M68.177,44.509c0-0.262,0.212-0.474,0.474-0.474h0.714
			c0.262,0,0.474,0.212,0.474,0.474v0.713c0,0.263-0.212,0.475-0.474,0.475H68.65c-0.262,0-0.474-0.212-0.474-0.475V44.509z
			 M65.683,30.263c0-0.262,0.213-0.475,0.476-0.475h0.712c0.262,0,0.475,0.213,0.475,0.475v0.712c0,0.263-0.213,0.476-0.475,0.476
			h-0.712c-0.263,0-0.476-0.213-0.476-0.476V30.263z M65.683,33.111c0-0.262,0.213-0.475,0.476-0.475h0.712
			c0.262,0,0.475,0.213,0.475,0.475v0.713c0,0.263-0.213,0.475-0.475,0.475h-0.712c-0.263,0-0.476-0.212-0.476-0.475V33.111z
			 M65.683,35.961c0-0.262,0.213-0.475,0.476-0.475h0.712c0.262,0,0.475,0.213,0.475,0.475v0.712c0,0.263-0.213,0.476-0.475,0.476
			h-0.712c-0.263,0-0.476-0.213-0.476-0.476V35.961z M65.683,38.811c0-0.262,0.213-0.475,0.476-0.475h0.712
			c0.262,0,0.475,0.213,0.475,0.475v0.712c0,0.263-0.213,0.476-0.475,0.476h-0.712c-0.263,0-0.476-0.213-0.476-0.476V38.811z
			 M65.683,41.66c0-0.263,0.213-0.475,0.476-0.475h0.712c0.262,0,0.475,0.212,0.475,0.475v0.713c0,0.262-0.213,0.475-0.475,0.475
			h-0.712c-0.263,0-0.476-0.213-0.476-0.475V41.66z M65.683,44.509c0-0.262,0.213-0.474,0.476-0.474h0.712
			c0.262,0,0.475,0.212,0.475,0.474v0.713c0,0.263-0.213,0.475-0.475,0.475h-0.712c-0.263,0-0.476-0.212-0.476-0.475V44.509z
			 M65.089,49.258c0,0.262-0.212,0.475-0.474,0.475h-0.013c-0.262,0-0.475-0.213-0.475-0.475s0.213-0.475,0.475-0.475h0.013
			C64.877,48.783,65.089,48.996,65.089,49.258z M63.189,30.263c0-0.262,0.212-0.475,0.476-0.475h0.712
			c0.263,0,0.476,0.213,0.476,0.475v0.712c0,0.263-0.213,0.476-0.476,0.476h-0.712c-0.264,0-0.476-0.213-0.476-0.476V30.263z
			 M63.189,33.111c0-0.262,0.212-0.475,0.476-0.475h0.712c0.263,0,0.476,0.213,0.476,0.475v0.713c0,0.263-0.213,0.475-0.476,0.475
			h-0.712c-0.264,0-0.476-0.212-0.476-0.475V33.111z M63.189,35.961c0-0.262,0.212-0.475,0.476-0.475h0.712
			c0.263,0,0.476,0.213,0.476,0.475v0.712c0,0.263-0.213,0.476-0.476,0.476h-0.712c-0.264,0-0.476-0.213-0.476-0.476V35.961z
			 M63.189,38.811c0-0.262,0.212-0.475,0.476-0.475h0.712c0.263,0,0.476,0.213,0.476,0.475v0.712c0,0.263-0.213,0.476-0.476,0.476
			h-0.712c-0.264,0-0.476-0.213-0.476-0.476V38.811z M63.189,41.66c0-0.263,0.212-0.475,0.476-0.475h0.712
			c0.263,0,0.476,0.212,0.476,0.475v0.713c0,0.262-0.213,0.475-0.476,0.475h-0.712c-0.264,0-0.476-0.213-0.476-0.475V41.66z
			 M63.189,44.509c0-0.262,0.212-0.474,0.476-0.474h0.712c0.263,0,0.476,0.212,0.476,0.474v0.713c0,0.263-0.213,0.475-0.476,0.475
			h-0.712c-0.264,0-0.476-0.212-0.476-0.475V44.509z"/>
		<rect x="66.989" y="48.783" fill="none" width="1.899" height="1.899"/>
		<rect x="57.492" y="48.783" fill="none" width="1.899" height="1.899"/>
		<path d="M54.879,35.486h-0.713c-0.262,0-0.475,0.213-0.475,0.475v0.712c0,0.263,0.213,0.476,0.475,0.476h0.713
			c0.263,0,0.475-0.213,0.475-0.476v-0.712C55.354,35.699,55.142,35.486,54.879,35.486z"/>
		<path d="M54.879,38.336h-0.713c-0.262,0-0.475,0.213-0.475,0.475v0.712c0,0.263,0.213,0.476,0.475,0.476h0.713
			c0.263,0,0.475-0.213,0.475-0.476v-0.712C55.354,38.549,55.142,38.336,54.879,38.336z"/>
		<path d="M54.879,41.186h-0.713c-0.262,0-0.475,0.212-0.475,0.475v0.713c0,0.262,0.213,0.475,0.475,0.475h0.713
			c0.263,0,0.475-0.213,0.475-0.475V41.66C55.354,41.397,55.142,41.186,54.879,41.186z"/>
		<path d="M54.879,44.035h-0.713c-0.262,0-0.475,0.212-0.475,0.474v0.713c0,0.263,0.213,0.475,0.475,0.475h0.713
			c0.263,0,0.475-0.212,0.475-0.475v-0.713C55.354,44.247,55.142,44.035,54.879,44.035z"/>
		<path d="M56.66,37.148h0.712c0.263,0,0.476-0.213,0.476-0.476v-0.712c0-0.262-0.213-0.475-0.476-0.475H56.66
			c-0.262,0-0.475,0.213-0.475,0.475v0.712C56.186,36.936,56.398,37.148,56.66,37.148z"/>
		<path d="M56.186,39.522c0,0.263,0.213,0.476,0.475,0.476h0.712c0.263,0,0.476-0.213,0.476-0.476v-0.712
			c0-0.262-0.213-0.475-0.476-0.475H56.66c-0.262,0-0.475,0.213-0.475,0.475V39.522z"/>
		<path d="M56.186,42.373c0,0.262,0.213,0.475,0.475,0.475h0.712c0.263,0,0.476-0.213,0.476-0.475V41.66
			c0-0.263-0.213-0.475-0.476-0.475H56.66c-0.262,0-0.475,0.212-0.475,0.475V42.373z"/>
		<path d="M57.372,45.696c0.263,0,0.476-0.212,0.476-0.475v-0.713c0-0.262-0.213-0.474-0.476-0.474H56.66
			c-0.262,0-0.475,0.212-0.475,0.474v0.713c0,0.263,0.213,0.475,0.475,0.475H57.372z"/>
		<path d="M59.866,37.148c0.262,0,0.475-0.213,0.475-0.476v-0.712c0-0.262-0.213-0.475-0.475-0.475h-0.713
			c-0.263,0-0.474,0.213-0.474,0.475v0.712c0,0.263,0.21,0.476,0.474,0.476H59.866z"/>
		<path d="M58.68,39.522c0,0.263,0.21,0.476,0.474,0.476h0.713c0.262,0,0.475-0.213,0.475-0.476v-0.712
			c0-0.262-0.213-0.475-0.475-0.475h-0.713c-0.263,0-0.474,0.213-0.474,0.475V39.522z"/>
		<path d="M58.68,42.373c0,0.262,0.21,0.475,0.474,0.475h0.713c0.262,0,0.475-0.213,0.475-0.475V41.66
			c0-0.263-0.213-0.475-0.475-0.475h-0.713c-0.263,0-0.474,0.212-0.474,0.475V42.373z"/>
		<path d="M58.68,45.222c0,0.263,0.21,0.475,0.474,0.475h0.713c0.262,0,0.475-0.212,0.475-0.475v-0.713
			c0-0.262-0.213-0.474-0.475-0.474h-0.713c-0.263,0-0.474,0.212-0.474,0.474V45.222z"/>
		<path d="M63.665,37.148h0.712c0.263,0,0.476-0.213,0.476-0.476v-0.712c0-0.262-0.213-0.475-0.476-0.475h-0.712
			c-0.264,0-0.476,0.213-0.476,0.475v0.712C63.189,36.936,63.401,37.148,63.665,37.148z"/>
		<path d="M63.665,34.299h0.712c0.263,0,0.476-0.212,0.476-0.475v-0.713c0-0.262-0.213-0.475-0.476-0.475h-0.712
			c-0.264,0-0.476,0.213-0.476,0.475v0.713C63.189,34.087,63.401,34.299,63.665,34.299z"/>
		<path d="M63.665,31.45h0.712c0.263,0,0.476-0.213,0.476-0.476v-0.712c0-0.262-0.213-0.475-0.476-0.475h-0.712
			c-0.264,0-0.476,0.213-0.476,0.475v0.712C63.189,31.237,63.401,31.45,63.665,31.45z"/>
		<path d="M63.665,39.998h0.712c0.263,0,0.476-0.213,0.476-0.476v-0.712c0-0.262-0.213-0.475-0.476-0.475h-0.712
			c-0.264,0-0.476,0.213-0.476,0.475v0.712C63.189,39.785,63.401,39.998,63.665,39.998z"/>
		<path d="M63.665,42.848h0.712c0.263,0,0.476-0.213,0.476-0.475V41.66c0-0.263-0.213-0.475-0.476-0.475h-0.712
			c-0.264,0-0.476,0.212-0.476,0.475v0.713C63.189,42.635,63.401,42.848,63.665,42.848z"/>
		<path d="M63.665,45.696h0.712c0.263,0,0.476-0.212,0.476-0.475v-0.713c0-0.262-0.213-0.474-0.476-0.474h-0.712
			c-0.264,0-0.476,0.212-0.476,0.474v0.713C63.189,45.484,63.401,45.696,63.665,45.696z"/>
		<path d="M66.158,37.148h0.712c0.262,0,0.475-0.213,0.475-0.476v-0.712c0-0.262-0.213-0.475-0.475-0.475h-0.712
			c-0.263,0-0.476,0.213-0.476,0.475v0.712C65.683,36.936,65.896,37.148,66.158,37.148z"/>
		<path d="M66.158,34.299h0.712c0.262,0,0.475-0.212,0.475-0.475v-0.713c0-0.262-0.213-0.475-0.475-0.475h-0.712
			c-0.263,0-0.476,0.213-0.476,0.475v0.713C65.683,34.087,65.896,34.299,66.158,34.299z"/>
		<path d="M66.158,31.45h0.712c0.262,0,0.475-0.213,0.475-0.476v-0.712c0-0.262-0.213-0.475-0.475-0.475h-0.712
			c-0.263,0-0.476,0.213-0.476,0.475v0.712C65.683,31.237,65.896,31.45,66.158,31.45z"/>
		<path d="M66.158,39.998h0.712c0.262,0,0.475-0.213,0.475-0.476v-0.712c0-0.262-0.213-0.475-0.475-0.475h-0.712
			c-0.263,0-0.476,0.213-0.476,0.475v0.712C65.683,39.785,65.896,39.998,66.158,39.998z"/>
		<path d="M66.158,42.848h0.712c0.262,0,0.475-0.213,0.475-0.475V41.66c0-0.263-0.213-0.475-0.475-0.475h-0.712
			c-0.263,0-0.476,0.212-0.476,0.475v0.713C65.683,42.635,65.896,42.848,66.158,42.848z"/>
		<path d="M66.158,45.696h0.712c0.262,0,0.475-0.212,0.475-0.475v-0.713c0-0.262-0.213-0.474-0.475-0.474h-0.712
			c-0.263,0-0.476,0.212-0.476,0.474v0.713C65.683,45.484,65.896,45.696,66.158,45.696z"/>
		<path d="M68.65,37.148h0.714c0.262,0,0.474-0.213,0.474-0.476v-0.712c0-0.262-0.212-0.475-0.474-0.475H68.65
			c-0.262,0-0.474,0.213-0.474,0.475v0.712C68.177,36.936,68.389,37.148,68.65,37.148z"/>
		<path d="M68.65,34.299h0.714c0.262,0,0.474-0.212,0.474-0.475v-0.713c0-0.262-0.212-0.475-0.474-0.475H68.65
			c-0.262,0-0.474,0.213-0.474,0.475v0.713C68.177,34.087,68.389,34.299,68.65,34.299z"/>
		<path d="M68.65,31.45h0.714c0.262,0,0.474-0.213,0.474-0.476v-0.712c0-0.262-0.212-0.475-0.474-0.475H68.65
			c-0.262,0-0.474,0.213-0.474,0.475v0.712C68.177,31.237,68.389,31.45,68.65,31.45z"/>
		<path d="M68.65,39.998h0.714c0.262,0,0.474-0.213,0.474-0.476v-0.712c0-0.262-0.212-0.475-0.474-0.475H68.65
			c-0.262,0-0.474,0.213-0.474,0.475v0.712C68.177,39.785,68.389,39.998,68.65,39.998z"/>
		<path d="M68.65,42.848h0.714c0.262,0,0.474-0.213,0.474-0.475V41.66c0-0.263-0.212-0.475-0.474-0.475H68.65
			c-0.262,0-0.474,0.212-0.474,0.475v0.713C68.177,42.635,68.389,42.848,68.65,42.848z"/>
		<path d="M68.65,45.696h0.714c0.262,0,0.474-0.212,0.474-0.475v-0.713c0-0.262-0.212-0.474-0.474-0.474H68.65
			c-0.262,0-0.474,0.212-0.474,0.474v0.713C68.177,45.484,68.389,45.696,68.65,45.696z"/>
		<path d="M64.603,48.783c-0.262,0-0.475,0.213-0.475,0.475s0.213,0.475,0.475,0.475h0.013c0.262,0,0.474-0.213,0.474-0.475
			s-0.212-0.475-0.474-0.475H64.603z"/>
		<path d="M73.447,50.683h-0.011c-0.263,0-0.476,0.213-0.476,0.476c0,0.262,0.213,0.474,0.476,0.474h0.011
			c0.262,0,0.475-0.212,0.475-0.474C73.922,50.896,73.709,50.683,73.447,50.683z"/>
		<path d="M72.072,50.683h-0.334v-22.89c0-0.262-0.213-0.475-0.475-0.475h-9.498c-0.263,0-0.476,0.213-0.476,0.475v5.794h-9.022
			c-0.263,0-0.476,0.213-0.476,0.475v11.08c0.307,0.144,0.626,0.296,0.949,0.453V34.536h8.549v16.146h-0.949v-2.374
			c0-0.263-0.213-0.476-0.475-0.476h-2.85c-0.263,0-0.476,0.213-0.476,0.476c0.228,0.624,0.352,1.938,0.415,3.323h0.061h2.85h1.899
			h4.749h2.85h1.899l0,0l0,0h0.809c0.262,0,0.475-0.212,0.475-0.474C72.547,50.896,72.334,50.683,72.072,50.683z M59.392,50.683
			h-1.899v-1.899h1.899V50.683z M68.889,50.683h-1.899v-1.899h1.899V50.683z M70.788,50.683h-0.95v-2.374
			c0-0.263-0.212-0.476-0.474-0.476h-2.85c-0.263,0-0.476,0.213-0.476,0.476v2.374h-3.798v-0.95h0.997
			c0.262,0,0.475-0.213,0.475-0.475s-0.213-0.475-0.475-0.475h-0.997V34.062v-5.794h8.547V50.683z"/>
	</g>
</g>
</svg>
