<!-- Generated by IcoMoon.io -->
<svg version="1.1" xmlns="http://www.w3.org/2000/svg" width="32" height="32" viewBox="0 0 32 32">
<title>service-providers-2</title>
<path d="M18.433 17.925c-1.254-1.030-2.605-1.75-3.069-1.987v-1.836c0.279-0.244 0.441-0.599 0.441-0.978v-2.198c0-1.264-1.030-2.294-2.294-2.294h-0.472c-1.264 0-2.294 1.030-2.294 2.294v2.197c0 0.379 0.162 0.734 0.441 0.978v1.836c-0.465 0.235-1.815 0.958-3.069 1.987-0.32 0.262-0.503 0.652-0.503 1.065v1.505c0 0.172 0.141 0.314 0.313 0.314s0.313-0.142 0.313-0.314v-1.505c0-0.227 0.1-0.44 0.272-0.582 1.34-1.099 2.79-1.832 3.069-1.967 0.141-0.069 0.231-0.21 0.231-0.369v-2.122c0-0.103-0.052-0.203-0.138-0.258-0.19-0.128-0.303-0.338-0.303-0.565v-2.197c0-0.92 0.747-1.667 1.667-1.667h0.472c0.92 0 1.667 0.747 1.667 1.667v2.198c0 0.227-0.114 0.437-0.303 0.565-0.086 0.058-0.138 0.155-0.138 0.258v2.119c0 0.155 0.089 0.3 0.231 0.368 0.279 0.134 1.729 0.868 3.069 1.967 0.172 0.142 0.272 0.355 0.272 0.582v1.505c0 0.172 0.141 0.313 0.313 0.313s0.313-0.141 0.313-0.313v-1.505c0-0.413-0.182-0.799-0.502-1.061zM14.003 16.365c-0.172 0-0.313 0.141-0.313 0.313 0 0.12-0.052 0.227-0.134 0.303-0.017 0.010-0.035 0.024-0.052 0.041-0.065 0.045-0.145 0.072-0.231 0.072-0.231 0-0.417-0.186-0.417-0.417 0-0.172-0.141-0.313-0.313-0.313s-0.313 0.141-0.313 0.313c0 0.244 0.086 0.468 0.227 0.647l-0.221 5.088c-0.003 0.093 0.035 0.183 0.103 0.245l0.699 0.63c0.059 0.055 0.134 0.079 0.21 0.079s0.151-0.028 0.21-0.079l0.709-0.64c0.069-0.062 0.107-0.152 0.104-0.245l-0.228-5.026c0.169-0.186 0.269-0.427 0.269-0.695 0.004-0.176-0.138-0.317-0.309-0.317zM13.252 22.634l-0.379-0.344 0.2-4.595c0.066 0.014 0.135 0.021 0.207 0.021 0.055 0 0.107-0.007 0.162-0.014l0.207 4.578-0.396 0.355zM18.104 14.016h-0.235c-0.086 0-0.157 0.070-0.157 0.157v0.235c0 0.087 0.070 0.157 0.157 0.157h0.235c0.087 0 0.157-0.070 0.157-0.157v-0.235c0-0.086-0.070-0.157-0.157-0.157zM18.104 14.956h-0.235c-0.086 0-0.157 0.070-0.157 0.157v0.235c0 0.087 0.070 0.157 0.157 0.157h0.235c0.087 0 0.157-0.070 0.157-0.157v-0.235c0-0.086-0.070-0.157-0.157-0.157zM18.104 15.896h-0.235c-0.086 0-0.157 0.070-0.157 0.157v0.235c0 0.086 0.070 0.157 0.157 0.157h0.235c0.087 0 0.157-0.070 0.157-0.157v-0.236c0-0.087-0.070-0.156-0.157-0.156zM18.104 16.836h-0.235c-0.086 0-0.157 0.070-0.157 0.156v0.235c0 0.087 0.070 0.157 0.157 0.157h0.235c0.087 0 0.157-0.070 0.157-0.157v-0.235c0-0.086-0.070-0.156-0.157-0.156zM18.692 14.564h0.235c0.087 0 0.157-0.070 0.157-0.157v-0.235c0-0.086-0.070-0.157-0.157-0.157h-0.235c-0.086 0-0.157 0.070-0.157 0.157v0.235c0 0.087 0.070 0.157 0.157 0.157zM18.536 15.348c0 0.087 0.070 0.157 0.157 0.157h0.235c0.087 0 0.157-0.070 0.157-0.157v-0.235c0-0.086-0.070-0.157-0.157-0.157h-0.235c-0.086 0-0.157 0.070-0.157 0.157v0.235zM18.536 16.288c0 0.086 0.070 0.157 0.157 0.157h0.235c0.087 0 0.157-0.070 0.157-0.157v-0.235c0-0.087-0.070-0.157-0.157-0.157h-0.235c-0.086 0-0.157 0.070-0.157 0.157v0.235zM18.927 17.384c0.087 0 0.157-0.070 0.157-0.157v-0.235c0-0.086-0.070-0.156-0.157-0.156h-0.235c-0.086 0-0.157 0.070-0.157 0.156v0.235c0 0.087 0.070 0.157 0.157 0.157h0.235zM19.75 14.564c0.086 0 0.157-0.070 0.157-0.157v-0.235c0-0.086-0.070-0.157-0.157-0.157h-0.235c-0.087 0-0.156 0.070-0.156 0.157v0.235c0 0.087 0.069 0.157 0.156 0.157h0.235zM19.358 15.348c0 0.087 0.069 0.157 0.156 0.157h0.235c0.086 0 0.157-0.070 0.157-0.157v-0.235c0-0.086-0.070-0.157-0.157-0.157h-0.235c-0.087 0-0.156 0.070-0.156 0.157v0.235zM19.358 16.288c0 0.086 0.069 0.157 0.156 0.157h0.235c0.086 0 0.157-0.070 0.157-0.157v-0.235c0-0.087-0.070-0.157-0.157-0.157h-0.235c-0.087 0-0.156 0.070-0.156 0.157v0.235zM19.358 17.228c0 0.087 0.069 0.157 0.156 0.157h0.235c0.086 0 0.157-0.070 0.157-0.157v-0.235c0-0.086-0.070-0.156-0.157-0.156h-0.235c-0.087 0-0.156 0.070-0.156 0.156v0.235zM21.003 14.564h0.235c0.087 0 0.157-0.070 0.157-0.157v-0.235c0-0.086-0.070-0.157-0.157-0.157h-0.235c-0.087 0-0.157 0.070-0.157 0.157v0.235c0 0.087 0.070 0.157 0.157 0.157zM21.003 13.624h0.235c0.087 0 0.157-0.070 0.157-0.157v-0.235c0-0.086-0.070-0.157-0.157-0.157h-0.235c-0.087 0-0.157 0.070-0.157 0.157v0.235c0 0.087 0.070 0.157 0.157 0.157zM21.003 12.685h0.235c0.087 0 0.157-0.070 0.157-0.157v-0.235c0-0.086-0.070-0.157-0.157-0.157h-0.235c-0.087 0-0.157 0.070-0.157 0.157v0.235c0 0.087 0.070 0.157 0.157 0.157zM21.003 15.505h0.235c0.087 0 0.157-0.070 0.157-0.157v-0.235c0-0.086-0.070-0.157-0.157-0.157h-0.235c-0.087 0-0.157 0.070-0.157 0.157v0.235c0 0.087 0.070 0.157 0.157 0.157zM21.003 16.445h0.235c0.087 0 0.157-0.070 0.157-0.157v-0.235c0-0.087-0.070-0.157-0.157-0.157h-0.235c-0.087 0-0.157 0.070-0.157 0.157v0.235c0 0.086 0.070 0.157 0.157 0.157zM21.003 17.384h0.235c0.087 0 0.157-0.070 0.157-0.157v-0.235c0-0.086-0.070-0.156-0.157-0.156h-0.235c-0.087 0-0.157 0.070-0.157 0.156v0.235c0 0.087 0.070 0.157 0.157 0.157zM21.825 14.564h0.235c0.086 0 0.157-0.070 0.157-0.157v-0.235c0-0.086-0.070-0.157-0.157-0.157h-0.235c-0.087 0-0.157 0.070-0.157 0.157v0.235c0 0.087 0.071 0.157 0.157 0.157zM21.825 13.624h0.235c0.086 0 0.157-0.070 0.157-0.157v-0.235c0-0.086-0.070-0.157-0.157-0.157h-0.235c-0.087 0-0.157 0.070-0.157 0.157v0.235c0 0.087 0.071 0.157 0.157 0.157zM21.825 12.685h0.235c0.086 0 0.157-0.070 0.157-0.157v-0.235c0-0.086-0.070-0.157-0.157-0.157h-0.235c-0.087 0-0.157 0.070-0.157 0.157v0.235c0 0.087 0.071 0.157 0.157 0.157zM21.825 15.505h0.235c0.086 0 0.157-0.070 0.157-0.157v-0.235c0-0.086-0.070-0.157-0.157-0.157h-0.235c-0.087 0-0.157 0.070-0.157 0.157v0.235c0 0.087 0.071 0.157 0.157 0.157zM21.825 16.445h0.235c0.086 0 0.157-0.070 0.157-0.157v-0.235c0-0.087-0.070-0.157-0.157-0.157h-0.235c-0.087 0-0.157 0.070-0.157 0.157v0.235c0 0.086 0.071 0.157 0.157 0.157zM21.825 17.384h0.235c0.086 0 0.157-0.070 0.157-0.157v-0.235c0-0.086-0.070-0.156-0.157-0.156h-0.235c-0.087 0-0.157 0.070-0.157 0.156v0.235c0 0.087 0.071 0.157 0.157 0.157zM22.647 14.564h0.236c0.086 0 0.156-0.070 0.156-0.157v-0.235c0-0.086-0.070-0.157-0.156-0.157h-0.236c-0.086 0-0.156 0.070-0.156 0.157v0.235c0 0.087 0.070 0.157 0.156 0.157zM22.647 13.624h0.236c0.086 0 0.156-0.070 0.156-0.157v-0.235c0-0.086-0.070-0.157-0.156-0.157h-0.236c-0.086 0-0.156 0.070-0.156 0.157v0.235c0 0.087 0.070 0.157 0.156 0.157zM22.647 12.685h0.236c0.086 0 0.156-0.070 0.156-0.157v-0.235c0-0.086-0.070-0.157-0.156-0.157h-0.236c-0.086 0-0.156 0.070-0.156 0.157v0.235c0 0.087 0.070 0.157 0.156 0.157zM22.647 15.505h0.236c0.086 0 0.156-0.070 0.156-0.157v-0.235c0-0.086-0.070-0.157-0.156-0.157h-0.236c-0.086 0-0.156 0.070-0.156 0.157v0.235c0 0.087 0.070 0.157 0.156 0.157zM22.647 16.445h0.236c0.086 0 0.156-0.070 0.156-0.157v-0.235c0-0.087-0.070-0.157-0.156-0.157h-0.236c-0.086 0-0.156 0.070-0.156 0.157v0.235c0 0.086 0.070 0.157 0.156 0.157zM22.647 17.384h0.236c0.086 0 0.156-0.070 0.156-0.157v-0.235c0-0.086-0.070-0.156-0.156-0.156h-0.236c-0.086 0-0.156 0.070-0.156 0.156v0.235c0 0.087 0.070 0.157 0.156 0.157zM21.312 18.403c-0.086 0-0.157 0.070-0.157 0.157s0.070 0.157 0.157 0.157h0.004c0.086 0 0.156-0.070 0.156-0.157s-0.070-0.157-0.156-0.157h-0.004zM24.23 19.029h-0.004c-0.087 0-0.157 0.070-0.157 0.157s0.070 0.156 0.157 0.156h0.004c0.086 0 0.157-0.070 0.157-0.156s-0.070-0.157-0.157-0.157zM23.776 19.029h-0.11v-7.551c0-0.086-0.070-0.157-0.157-0.157h-3.133c-0.087 0-0.157 0.070-0.157 0.157v1.911h-2.976c-0.087 0-0.157 0.070-0.157 0.157v3.655c0.101 0.047 0.206 0.098 0.313 0.149v-3.648h2.82v5.327h-0.313v-0.783c0-0.087-0.070-0.157-0.157-0.157h-0.94c-0.087 0-0.157 0.070-0.157 0.157 0.075 0.206 0.116 0.639 0.137 1.096h4.987c0.086 0 0.157-0.070 0.157-0.156s-0.070-0.156-0.156-0.156zM19.593 19.029h-0.626v-0.626h0.626v0.626zM22.726 19.029h-0.626v-0.626h0.626v0.626zM23.353 19.029h-0.313v-0.783c0-0.087-0.070-0.157-0.156-0.157h-0.94c-0.087 0-0.157 0.070-0.157 0.157v0.783h-1.253v-0.313h0.329c0.086 0 0.157-0.070 0.157-0.157s-0.070-0.157-0.157-0.157h-0.329v-6.768h2.82v7.395z"></path>
</svg>
