<!-- Generated by IcoMoon.io -->
<svg version="1.1" xmlns="http://www.w3.org/2000/svg" width="32" height="32" viewBox="0 0 32 32">
<title>share-2</title>
<path d="M23.176 12.446c2.335 0 4.237-1.911 4.237-4.259s-1.903-4.259-4.237-4.259c-2.338 0-4.238 1.91-4.238 4.259 0 0.442 0.067 0.869 0.193 1.27l-8.799 5.395c-0.676-0.584-1.555-0.938-2.515-0.938-2.135 0-3.871 1.745-3.871 3.891s1.736 3.888 3.871 3.888c0.76 0 1.468-0.221 2.067-0.601l7.097 4.079c-0.040 0.216-0.063 0.435-0.063 0.66 0 1.942 1.572 3.519 3.503 3.519s3.501-1.578 3.501-3.519c0-1.939-1.57-3.518-3.501-3.518-0.951 0-1.816 0.385-2.448 1.005l-6.666-3.833c0.244-0.508 0.382-1.080 0.382-1.681 0-0.42-0.068-0.825-0.191-1.203l8.733-5.355c0.764 0.741 1.8 1.199 2.945 1.199z"></path>
</svg>
