<?xml version="1.0" encoding="utf-8"?>
<!-- Generator: Adobe Illustrator 16.0.0, SVG Export Plug-In . SVG Version: 6.00 Build 0)  -->
<!DOCTYPE svg PUBLIC "-//W3C//DTD SVG 1.1//EN" "http://www.w3.org/Graphics/SVG/1.1/DTD/svg11.dtd">
<svg version="1.1" id="Layer_1" xmlns="http://www.w3.org/2000/svg" xmlns:xlink="http://www.w3.org/1999/xlink" x="0px" y="0px"
	 width="50px" height="50px" viewBox="0 0 50 50" enable-background="new 0 0 50 50" xml:space="preserve">
<path d="M36.213,19.447c3.648,0,6.621-2.986,6.621-6.655c0-3.67-2.973-6.654-6.621-6.654c-3.653,0-6.622,2.984-6.622,6.654
	c0,0.691,0.104,1.358,0.302,1.984l-13.748,8.43c-1.056-0.913-2.429-1.465-3.93-1.465c-3.336,0-6.049,2.726-6.049,6.079
	c0,3.352,2.712,6.075,6.049,6.075c1.188,0,2.294-0.346,3.229-0.939l11.089,6.374c-0.063,0.337-0.099,0.68-0.099,1.032
	c0,3.034,2.456,5.499,5.473,5.499s5.47-2.465,5.47-5.499c0-3.029-2.453-5.497-5.47-5.497c-1.486,0-2.838,0.601-3.825,1.57
	l-10.415-5.989c0.382-0.794,0.597-1.687,0.597-2.626c0-0.656-0.107-1.289-0.298-1.88l13.646-8.367
	C32.805,18.731,34.425,19.447,36.213,19.447z"/>
</svg>
