<!-- Generated by IcoMoon.io -->
<svg version="1.1" xmlns="http://www.w3.org/2000/svg" width="32" height="32" viewBox="0 0 32 32">
<title>specialpurpose</title>
<path d="M23.208 11.768h-5.144l-1.589-4.891c-0.134-0.412-0.817-0.412-0.951 0l-1.589 4.891h-5.142c-0.217 0-0.409 0.14-0.476 0.346s0.006 0.432 0.182 0.559l4.16 3.023-1.589 4.891c-0.067 0.206 0.006 0.432 0.182 0.559 0.088 0.063 0.191 0.096 0.294 0.096s0.206-0.032 0.294-0.096l4.16-3.024 4.161 3.022c0.176 0.127 0.412 0.127 0.588 0 0.175-0.127 0.248-0.353 0.182-0.559l-1.589-4.891 4.16-3.023c0.175-0.127 0.248-0.353 0.182-0.559-0.068-0.205-0.259-0.344-0.476-0.344zM18.46 15.1c-0.175 0.127-0.248 0.353-0.182 0.559l1.226 3.773-3.21-2.332c-0.088-0.063-0.191-0.096-0.294-0.096s-0.206 0.032-0.294 0.096l-3.209 2.332 1.226-3.773c0.067-0.206-0.006-0.432-0.182-0.559l-3.209-2.332h3.967c0.217 0 0.409-0.14 0.476-0.346l1.225-3.773 1.226 3.772c0.067 0.206 0.259 0.346 0.476 0.346h3.968l-3.21 2.333zM28.291 14.084c0-6.777-5.514-12.29-12.29-12.29-6.777 0-12.291 5.513-12.291 12.272-0.013 0.371-0.175 9.162 12.043 16.075l0.247 0.139 0.246-0.139c12.22-6.912 12.058-15.703 12.045-16.057zM16 29.13c-11.409-6.574-11.293-14.945-11.29-15.046 0-6.226 5.065-11.29 11.291-11.29s11.29 5.064 11.29 11.306c0.003 0.085 0.119 8.456-11.291 15.030z"></path>
</svg>
