<!-- Generated by IcoMoon.io -->
<svg version="1.1" xmlns="http://www.w3.org/2000/svg" width="32" height="32" viewBox="0 0 32 32">
<title>swimming</title>
<path d="M31.476 21.299c-0.25-0.123-0.491-0.277-0.719-0.459-1.683-1.346-3.84-1.587-5.693-0.725l-4.157-4.157c1.966-0.114 3.53-1.749 3.53-3.743 0-2.068-1.682-3.75-3.75-3.75-1.994 0-3.628 1.564-3.743 3.53l-2.592-2.592 3.636-3.636c1.099-1.099 1.099-2.878 0-3.977-1.096-1.097-2.881-1.097-3.977 0l-5.625 5.625c-1.099 1.099-1.099 2.878 0 3.977l3.087 3.087-5.317 5.317c-1.632-0.443-3.396-0.095-4.82 1.044-0.25 0.2-0.517 0.366-0.793 0.495-0.47 0.218-0.674 0.775-0.456 1.245s0.775 0.674 1.245 0.456c0.413-0.192 0.808-0.438 1.175-0.731 1.351-1.081 3.165-1.081 4.516 0 2.043 1.634 4.746 1.64 6.796 0 1.353-1.082 3.101-1.082 4.454 0 2.043 1.634 4.746 1.64 6.796 0 1.351-1.081 3.165-1.081 4.516 0 0.333 0.267 0.691 0.495 1.063 0.677 0.465 0.229 1.026 0.037 1.255-0.428s0.037-1.026-0.428-1.255zM20.688 10.341c1.034 0 1.875 0.841 1.875 1.875s-0.841 1.875-1.875 1.875-1.875-0.841-1.875-1.875c0-1.034 0.841-1.875 1.875-1.875zM19.445 20.84c-1.004-0.803-2.179-1.227-3.398-1.227s-2.394 0.424-3.398 1.227c-1.353 1.082-3.101 1.082-4.454 0-0.081-0.065-0.163-0.126-0.246-0.185l5.513-5.513c0.366-0.366 0.366-0.96 0-1.326l-3.75-3.75c-0.367-0.367-0.367-0.959 0-1.326l5.625-5.625c0.367-0.367 0.959-0.367 1.326 0s0.367 0.959 0 1.326l-4.299 4.299c-0.366 0.366-0.366 0.96 0 1.326l11.085 11.085c-1.275 0.758-2.797 0.654-4.004-0.311zM31.476 25.049c-0.25-0.123-0.491-0.277-0.719-0.459-2.051-1.641-4.808-1.641-6.859 0-1.353 1.082-3.101 1.082-4.454 0-1.004-0.803-2.179-1.227-3.398-1.227s-2.394 0.424-3.398 1.227c-1.353 1.082-3.101 1.082-4.454 0-2.051-1.641-4.807-1.641-6.859 0-0.25 0.2-0.517 0.366-0.793 0.495-0.47 0.218-0.674 0.775-0.456 1.245s0.775 0.674 1.245 0.456c0.413-0.192 0.808-0.438 1.175-0.731 1.351-1.081 3.165-1.081 4.516 0 2.043 1.634 4.746 1.64 6.796 0 1.353-1.082 3.101-1.082 4.454 0 2.043 1.634 4.746 1.64 6.796 0 1.351-1.081 3.165-1.081 4.516 0 0.333 0.267 0.691 0.495 1.063 0.677 0.465 0.229 1.026 0.037 1.255-0.428s0.037-1.027-0.428-1.255zM31.476 28.799c-0.25-0.123-0.491-0.277-0.719-0.459-2.051-1.641-4.808-1.641-6.859 0-1.353 1.082-3.101 1.082-4.454 0-1.004-0.803-2.179-1.227-3.398-1.227s-2.394 0.424-3.398 1.227c-1.353 1.082-3.101 1.082-4.454 0-2.051-1.641-4.807-1.641-6.859 0-0.25 0.2-0.517 0.366-0.793 0.495-0.47 0.218-0.674 0.775-0.456 1.245s0.775 0.674 1.245 0.456c0.413-0.192 0.808-0.438 1.175-0.731 1.351-1.081 3.165-1.081 4.516 0 2.043 1.634 4.746 1.64 6.796 0 1.353-1.082 3.101-1.082 4.454 0 2.043 1.634 4.746 1.64 6.796 0 1.351-1.081 3.165-1.081 4.516 0 0.333 0.267 0.691 0.495 1.063 0.677 0.465 0.229 1.026 0.037 1.255-0.428s0.037-1.027-0.428-1.255z"></path>
</svg>
