<!-- Generated by IcoMoon.io -->
<svg version="1.1" xmlns="http://www.w3.org/2000/svg" width="32" height="32" viewBox="0 0 32 32">
<title>twitter-2</title>
<path d="M16 0c-8.837 0-16 7.163-16 16 0 8.838 7.163 16 16 16s16-7.162 16-16c0-8.837-7.162-16-16-16zM14.056 20.905c0.538 0.556 1.191 0.832 1.957 0.832h5.525c0.766 0 1.425 0.283 1.971 0.849 0.549 0.568 0.821 1.243 0.821 2.035 0 0.789-0.273 1.467-0.821 2.030-0.546 0.567-1.204 0.851-1.971 0.851h-5.523c-2.299 0-4.265-0.844-5.897-2.529-1.633-1.685-2.45-3.713-2.45-6.088v-11.5c0-0.813 0.273-1.498 0.815-2.053 0.544-0.553 1.209-0.831 1.992-0.831 0.761 0 1.415 0.282 1.958 0.849 0.544 0.564 0.815 1.241 0.815 2.033v2.88h8.279c0.768 0 1.429 0.283 1.98 0.847 0.549 0.565 0.823 1.243 0.823 2.034s-0.274 1.468-0.823 2.033c-0.546 0.565-1.208 0.847-1.971 0.847h-8.288v2.856c0.002 0.794 0.27 1.47 0.807 2.025z"></path>
</svg>
