<!-- Generated by IcoMoon.io -->
<svg version="1.1" xmlns="http://www.w3.org/2000/svg" width="32" height="32" viewBox="0 0 32 32">
<title>twitter</title>
<path d="M25.985 9.806c-0.737 0.326-1.525 0.547-2.354 0.645 0.847-0.506 1.495-1.309 1.801-2.266-0.79 0.47-1.667 0.811-2.601 0.994-0.746-0.797-1.813-1.293-2.991-1.293-2.262 0-4.098 1.834-4.098 4.097 0 0.32 0.037 0.634 0.107 0.934-3.405-0.172-6.424-1.802-8.444-4.281-0.353 0.604-0.557 1.31-0.557 2.061 0 1.421 0.725 2.675 1.823 3.409-0.671-0.021-1.303-0.204-1.854-0.513 0 0.018 0 0.034 0 0.052 0 1.986 1.412 3.642 3.285 4.017-0.343 0.095-0.705 0.146-1.078 0.146-0.265 0-0.521-0.027-0.771-0.075 0.521 1.629 2.034 2.813 3.826 2.846-1.4 1.1-3.166 1.754-5.088 1.754-0.33 0-0.656-0.019-0.977-0.056 1.813 1.161 3.968 1.84 6.279 1.84 7.537 0 11.658-6.244 11.658-11.657 0-0.179-0.003-0.354-0.012-0.531 0.801-0.58 1.496-1.301 2.046-2.123v0z"></path>
</svg>
