<?xml version="1.0" encoding="utf-8"?>
<!-- Generator: Adobe Illustrator 16.0.0, SVG Export Plug-In . SVG Version: 6.00 Build 0)  -->
<!DOCTYPE svg PUBLIC "-//W3C//DTD SVG 1.1//EN" "http://www.w3.org/Graphics/SVG/1.1/DTD/svg11.dtd">
<svg version="1.1" id="Layer_1" xmlns="http://www.w3.org/2000/svg" xmlns:xlink="http://www.w3.org/1999/xlink" x="0px" y="0px"
	 width="27px" height="27px" viewBox="0 0 27 27" enable-background="new 0 0 27 27" xml:space="preserve">
<path d="M13.5,0C6.044,0,0,6.044,0,13.5C0,20.957,6.044,27,13.5,27S27,20.957,27,13.5C27,6.044,20.957,0,13.5,0z M11.86,17.639
	c0.454,0.469,1.005,0.702,1.651,0.702h4.662c0.646,0,1.202,0.239,1.663,0.716c0.463,0.479,0.693,1.049,0.693,1.717
	c0,0.666-0.23,1.238-0.693,1.713c-0.461,0.478-1.016,0.718-1.663,0.718h-4.66c-1.94,0-3.599-0.712-4.976-2.134
	c-1.378-1.422-2.067-3.133-2.067-5.137V6.231c0-0.686,0.23-1.264,0.688-1.732c0.459-0.467,1.02-0.701,1.681-0.701
	c0.642,0,1.194,0.238,1.652,0.716c0.459,0.476,0.688,1.047,0.688,1.715v2.43h6.985c0.648,0,1.206,0.239,1.671,0.715
	c0.463,0.477,0.694,1.049,0.694,1.716s-0.231,1.239-0.694,1.715c-0.461,0.477-1.019,0.715-1.663,0.715h-6.993v2.41
	C11.181,16.6,11.407,17.17,11.86,17.639z"/>
</svg>
