<!-- Generated by IcoMoon.io -->
<svg version="1.1" xmlns="http://www.w3.org/2000/svg" width="32" height="32" viewBox="0 0 32 32">
<title>whatsapp-logo</title>
<path d="M32 15.588c0 8.609-7.033 15.588-15.709 15.588-2.755 0-5.342-0.704-7.594-1.94l-8.697 2.764 2.836-8.363c-1.43-2.349-2.254-5.104-2.254-8.049 0-8.609 7.033-15.588 15.71-15.588 8.677 0 15.709 6.979 15.709 15.588zM16.291 2.483c-7.283 0-13.207 5.879-13.207 13.105 0 2.868 0.935 5.523 2.516 7.684l-1.65 4.867 5.076-1.613c2.085 1.369 4.583 2.168 7.267 2.168 7.282 0 13.207-5.878 13.207-13.105s-5.925-13.106-13.208-13.106zM24.224 19.178c-0.097-0.159-0.353-0.255-0.738-0.446s-2.279-1.116-2.631-1.243c-0.353-0.127-0.61-0.191-0.867 0.191s-0.994 1.243-1.22 1.498c-0.225 0.256-0.449 0.288-0.834 0.096s-1.625-0.595-3.096-1.896c-1.145-1.013-1.918-2.263-2.142-2.646s-0.023-0.589 0.169-0.779c0.174-0.171 0.385-0.446 0.578-0.669s0.257-0.382 0.385-0.637c0.129-0.255 0.065-0.478-0.032-0.669s-0.867-2.071-1.188-2.836c-0.321-0.764-0.641-0.637-0.866-0.637s-0.481-0.032-0.738-0.032-0.674 0.096-1.027 0.478c-0.353 0.383-1.347 1.307-1.347 3.187s1.379 3.697 1.572 3.951c0.192 0.255 2.663 4.238 6.578 5.768s3.915 1.019 4.621 0.955c0.705-0.064 2.278-0.924 2.6-1.816 0.32-0.893 0.32-1.658 0.224-1.817z"></path>
</svg>
