<!-- Generated by IcoMoon.io -->
<svg version="1.1" xmlns="http://www.w3.org/2000/svg" width="32" height="32" viewBox="0 0 32 32">
<title>zoom-out</title>
<path d="M17.51 12.083h-8.458c-0.334 0-0.604 0.271-0.604 0.604s0.271 0.604 0.604 0.604h8.458c0.334 0 0.604-0.271 0.604-0.604s-0.271-0.604-0.604-0.604zM31.238 30.977l-8.977-9.336c2.29-2.296 3.708-5.462 3.708-8.954 0-6.996-5.691-12.687-12.687-12.687s-12.687 5.691-12.687 12.687 5.691 12.687 12.687 12.687c3.071 0 5.889-1.098 8.086-2.919l8.999 9.359c0.118 0.124 0.277 0.185 0.436 0.185 0.151 0 0.301-0.056 0.419-0.169 0.24-0.231 0.248-0.614 0.017-0.854zM1.802 12.687c0-6.33 5.149-11.479 11.479-11.479s11.479 5.149 11.479 11.479-5.149 11.479-11.479 11.479-11.479-5.149-11.479-11.479z"></path>
</svg>
